<svg xmlns="http://www.w3.org/2000/svg" width="980" height="398" viewBox="0 0 980 398">
<rect width="100%" height="100%" rx="26" fill="#0f172a"/>
<text x="42" y="38" fill="#f8fafc" font-size="26" font-weight="700">MDIT 审计结果排行</text>
<text x="42" y="60" fill="#94a3b8" font-size="14">MDIT 只保留一张行为结果图，把关键里程碑和稳定化对照放到同一张排行条里，直接回答当前最能代表主线结果的是谁。</text>
<text x="42" y="98" fill="#cbd5e1" font-size="14">epoch 300</text>
<rect x="210" y="78" width="700" height="18" rx="9" fill="#1e293b"/>
<rect x="210" y="78" width="525.0" height="18" rx="9" fill="#b2573f"/>
<text x="918" y="92" fill="#f8fafc" font-size="13">0.75</text>
<text x="42" y="146" fill="#cbd5e1" font-size="14">epoch 400</text>
<rect x="210" y="126" width="700" height="18" rx="9" fill="#1e293b"/>
<rect x="210" y="126" width="525.0" height="18" rx="9" fill="#2b766f"/>
<text x="918" y="140" fill="#f8fafc" font-size="13">0.75</text>
<text x="42" y="194" fill="#cbd5e1" font-size="14">epoch 500</text>
<rect x="210" y="174" width="700" height="18" rx="9" fill="#1e293b"/>
<rect x="210" y="174" width="525.0" height="18" rx="9" fill="#b2573f"/>
<text x="918" y="188" fill="#f8fafc" font-size="13">0.75</text>
<text x="42" y="242" fill="#cbd5e1" font-size="14">epoch 200</text>
<rect x="210" y="222" width="700" height="18" rx="9" fill="#1e293b"/>
<rect x="210" y="222" width="420.0" height="18" rx="9" fill="#2b766f"/>
<text x="918" y="236" fill="#f8fafc" font-size="13">0.60</text>
<text x="42" y="290" fill="#cbd5e1" font-size="14">epoch 100</text>
<rect x="210" y="270" width="700" height="18" rx="9" fill="#1e293b"/>
<rect x="210" y="270" width="385.0" height="18" rx="9" fill="#2b766f"/>
<text x="918" y="284" fill="#f8fafc" font-size="13">0.55</text>
<text x="42" y="338" fill="#cbd5e1" font-size="14">epoch 50</text>
<rect x="210" y="318" width="700" height="18" rx="9" fill="#1e293b"/>
<rect x="210" y="318" width="175.0" height="18" rx="9" fill="#2b766f"/>
<text x="918" y="332" fill="#f8fafc" font-size="13">0.25</text>
</svg>