<svg xmlns="http://www.w3.org/2000/svg" width="980" height="420" viewBox="0 0 980 420">
<rect width="100%" height="100%" rx="26" fill="#0f172a"/>
<text x="74" y="38" fill="#f8fafc" font-size="26" font-weight="700">MDIT 主线 train / valid total loss</text>
<text x="74" y="60" fill="#94a3b8" font-size="14">保留一张完整的主线 loss 曲线，直接看 100→500 续训过程中收敛、波动和回弹是怎样展开的。</text>
<line x1="74" y1="364.0" x2="948" y2="364.0" stroke="#334155" stroke-width="1"/>
<text x="64" y="368.0" text-anchor="end" fill="#94a3b8" font-size="12">0.000</text>
<line x1="74" y1="290.5" x2="948" y2="290.5" stroke="#334155" stroke-width="1"/>
<text x="64" y="294.5" text-anchor="end" fill="#94a3b8" font-size="12">2.415</text>
<line x1="74" y1="217.0" x2="948" y2="217.0" stroke="#334155" stroke-width="1"/>
<text x="64" y="221.0" text-anchor="end" fill="#94a3b8" font-size="12">4.829</text>
<line x1="74" y1="143.5" x2="948" y2="143.5" stroke="#334155" stroke-width="1"/>
<text x="64" y="147.5" text-anchor="end" fill="#94a3b8" font-size="12">7.244</text>
<line x1="74" y1="70.0" x2="948" y2="70.0" stroke="#334155" stroke-width="1"/>
<text x="64" y="74.0" text-anchor="end" fill="#94a3b8" font-size="12">9.659</text>
<line x1="74" y1="364" x2="948" y2="364" stroke="#475569" stroke-width="2"/>
<path d="M 74.0 306.7 L 75.8 309.8 L 77.5 324.4 L 79.3 319.5 L 81.0 332.8 L 82.8 333.1 L 84.5 339.5 L 86.3 343.0 L 88.0 347.9 L 89.8 351.6 L 91.6 352.8 L 93.3 349.3 L 95.1 356.8 L 96.8 358.0 L 98.6 355.6 L 100.3 352.3 L 102.1 353.1 L 103.8 357.1 L 105.6 349.4 L 107.3 359.1 L 109.1 358.4 L 110.9 357.0 L 112.6 354.9 L 114.4 359.7 L 116.1 358.9 L 117.9 359.3 L 119.6 360.2 L 121.4 359.1 L 123.1 357.5 L 124.9 360.8 L 126.7 359.3 L 128.4 357.8 L 130.2 361.8 L 131.9 359.4 L 133.7 361.7 L 135.4 359.3 L 137.2 362.3 L 138.9 360.9 L 140.7 357.6 L 142.4 360.8 L 144.2 359.4 L 146.0 362.0 L 147.7 362.0 L 149.5 361.0 L 151.2 362.1 L 153.0 361.8 L 154.7 361.1 L 156.5 362.1 L 158.2 361.9 L 160.0 360.6 L 161.8 361.2 L 163.5 362.7 L 165.3 362.0 L 167.0 362.3 L 168.8 362.2 L 170.5 361.6 L 172.3 362.1 L 174.0 362.6 L 175.8 362.8 L 177.5 362.9 L 179.3 362.7 L 181.1 362.4 L 182.8 360.4 L 184.6 362.9 L 186.3 362.0 L 188.1 360.3 L 189.8 363.2 L 191.6 362.0 L 193.3 362.4 L 195.1 361.1 L 196.9 361.9 L 198.6 363.1 L 200.4 363.2 L 202.1 363.2 L 203.9 362.6 L 205.6 362.4 L 207.4 363.3 L 209.1 362.2 L 210.9 363.3 L 212.6 363.3 L 214.4 363.2 L 216.2 356.1 L 217.9 363.3 L 219.7 361.9 L 221.4 363.4 L 223.2 362.1 L 224.9 361.9 L 226.7 363.4 L 228.4 362.5 L 230.2 362.4 L 232.0 360.0 L 233.7 363.1 L 235.5 363.4 L 237.2 362.8 L 239.0 361.8 L 240.7 359.1 L 242.5 363.0 L 244.2 363.4 L 246.0 363.1 L 249.5 362.2 L 251.3 359.9 L 253.0 360.1 L 254.8 356.6 L 256.5 360.9 L 258.3 361.3 L 260.0 361.7 L 261.8 362.4 L 263.5 360.9 L 265.3 361.3 L 267.1 362.8 L 268.8 362.7 L 270.6 360.9 L 272.3 359.9 L 274.1 361.4 L 275.8 362.4 L 277.6 356.9 L 279.3 362.4 L 281.1 361.8 L 282.8 362.3 L 284.6 359.7 L 286.4 363.1 L 288.1 361.7 L 289.9 362.5 L 291.6 362.9 L 293.4 361.7 L 295.1 361.0 L 296.9 362.2 L 298.6 362.9 L 300.4 361.2 L 302.2 363.1 L 303.9 362.0 L 305.7 362.4 L 307.4 363.1 L 309.2 363.3 L 310.9 362.6 L 312.7 360.2 L 314.4 362.9 L 316.2 362.0 L 317.9 363.2 L 319.7 363.2 L 321.5 362.2 L 323.2 362.4 L 325.0 362.9 L 326.7 362.4 L 328.5 362.8 L 330.2 362.9 L 332.0 360.0 L 333.7 361.6 L 335.5 363.2 L 337.3 362.6 L 339.0 362.7 L 340.8 363.2 L 342.5 362.3 L 344.3 362.5 L 346.0 363.1 L 347.8 363.1 L 349.5 361.3 L 351.3 363.1 L 353.0 362.9 L 354.8 361.4 L 356.6 363.2 L 358.3 359.8 L 360.1 363.1 L 361.8 363.4 L 363.6 362.5 L 365.3 362.9 L 367.1 359.5 L 368.8 363.4 L 370.6 363.3 L 372.4 363.5 L 374.1 363.5 L 375.9 362.9 L 377.6 361.4 L 379.4 363.4 L 381.1 362.5 L 382.9 363.4 L 384.6 363.3 L 386.4 361.3 L 388.1 356.8 L 389.9 363.3 L 391.7 361.8 L 393.4 362.9 L 395.2 363.5 L 396.9 362.1 L 398.7 363.4 L 400.4 361.9 L 402.2 362.9 L 403.9 362.2 L 405.7 363.2 L 407.5 363.5 L 409.2 363.0 L 411.0 363.3 L 412.7 363.0 L 414.5 362.7 L 416.2 363.5 L 418.0 362.5 L 419.7 363.3 L 421.5 360.0 L 423.2 363.1 L 425.0 362.2 L 426.8 363.4 L 428.5 362.8 L 430.3 362.9 L 432.0 362.1 L 433.8 359.5 L 435.5 363.3 L 437.3 363.1 L 439.0 362.5 L 440.8 363.0 L 442.6 363.6 L 444.3 363.7 L 446.1 363.1 L 447.8 361.7 L 449.6 361.9 L 451.3 363.5 L 453.1 363.3 L 454.8 363.2 L 456.6 363.5 L 458.3 362.3 L 460.1 362.7 L 461.9 363.4 L 463.6 363.5 L 465.4 363.5 L 467.1 363.2 L 468.9 363.3 L 470.6 363.4 L 472.4 362.4 L 474.1 362.9 L 475.9 360.6 L 477.7 361.6 L 479.4 363.4 L 481.2 363.2 L 482.9 362.7 L 484.7 362.2 L 486.4 363.6 L 488.2 363.0 L 489.9 363.1 L 491.7 363.3 L 493.4 362.2 L 495.2 363.2 L 497.0 363.3 L 498.7 362.8 L 500.5 362.8 L 502.2 363.4 L 504.0 363.4 L 505.7 363.5 L 507.5 363.6 L 509.2 362.4 L 511.0 362.3 L 512.8 363.4 L 514.5 363.6 L 516.3 363.2 L 518.0 363.4 L 519.8 363.6 L 521.5 363.0 L 523.3 362.3 L 525.0 363.2 L 526.8 363.5 L 528.6 363.7 L 530.3 363.6 L 532.1 359.9 L 533.8 363.5 L 535.6 362.8 L 537.3 362.5 L 539.1 363.2 L 540.8 363.7 L 542.6 363.2 L 544.3 363.7 L 546.1 363.7 L 547.9 361.4 L 549.6 363.4 L 551.4 363.1 L 553.1 363.2 L 554.9 363.1 L 556.6 363.3 L 558.4 363.0 L 560.1 363.2 L 561.9 363.3 L 563.7 361.1 L 565.4 361.9 L 567.2 363.6 L 568.9 363.7 L 570.7 362.0 L 572.4 363.7 L 574.2 359.9 L 575.9 363.7 L 577.7 363.6 L 579.4 363.8 L 581.2 363.4 L 583.0 363.4 L 584.7 361.6 L 586.5 363.8 L 588.2 362.9 L 590.0 363.3 L 591.7 363.6 L 593.5 363.7 L 595.2 362.4 L 597.0 363.7 L 598.8 363.5 L 600.5 363.7 L 602.3 362.7 L 604.0 361.4 L 605.8 363.6 L 607.5 362.5 L 609.3 363.7 L 611.0 361.6 L 612.8 363.6 L 614.5 363.4 L 616.3 363.6 L 618.1 363.8 L 619.8 363.6 L 621.6 363.6 L 623.3 363.4 L 625.1 363.7 L 626.8 361.0 L 628.6 363.7 L 630.3 363.8 L 632.1 363.5 L 633.9 363.8 L 635.6 363.2 L 637.4 363.9 L 639.1 363.7 L 640.9 362.9 L 642.6 363.7 L 644.4 363.6 L 646.1 363.3 L 647.9 363.6 L 649.6 363.4 L 651.4 363.5 L 653.2 363.2 L 654.9 361.0 L 656.7 363.7 L 658.4 363.5 L 660.2 361.9 L 661.9 363.5 L 663.7 363.6 L 665.4 363.8 L 667.2 363.9 L 669.0 363.2 L 670.7 363.8 L 672.5 363.5 L 674.2 363.8 L 676.0 363.7 L 677.7 363.8 L 679.5 361.8 L 681.2 361.9 L 683.0 363.6 L 684.7 362.2 L 686.5 363.7 L 688.3 363.0 L 690.0 363.8 L 691.8 363.5 L 693.5 361.8 L 695.3 363.7 L 697.0 363.9 L 698.8 362.9 L 700.5 362.9 L 702.3 363.5 L 704.1 361.9 L 705.8 363.9 L 707.6 363.5 L 709.3 361.8 L 711.1 363.5 L 712.8 363.2 L 714.6 363.9 L 716.3 363.3 L 718.1 363.6 L 719.8 363.4 L 721.6 363.4 L 723.4 363.8 L 725.1 363.6 L 726.9 362.3 L 728.6 363.8 L 730.4 363.8 L 732.1 360.7 L 733.9 363.4 L 735.6 363.9 L 737.4 363.8 L 739.2 363.2 L 740.9 363.8 L 742.7 363.8 L 744.4 363.9 L 746.2 363.7 L 747.9 363.4 L 749.7 363.8 L 751.4 363.8 L 753.2 363.8 L 754.9 363.9 L 756.7 363.8 L 758.5 363.8 L 760.2 362.8 L 762.0 363.7 L 763.7 363.8 L 765.5 363.8 L 767.2 362.7 L 769.0 363.8 L 770.7 363.7 L 772.5 363.7 L 774.3 363.3 L 776.0 363.8 L 777.8 363.8 L 779.5 361.0 L 781.3 362.8 L 783.0 363.4 L 784.8 363.7 L 786.5 363.7 L 788.3 363.8 L 790.0 363.8 L 791.8 361.9 L 793.6 363.6 L 795.3 361.4 L 797.1 363.7 L 798.8 362.3 L 800.6 363.9 L 802.3 362.7 L 804.1 363.5 L 805.8 363.7 L 807.6 361.8 L 809.4 363.3 L 811.1 363.0 L 812.9 363.5 L 814.6 363.9 L 816.4 363.9 L 818.1 363.8 L 819.9 363.8 L 821.6 363.8 L 823.4 363.5 L 825.1 363.3 L 826.9 362.8 L 828.7 363.8 L 830.4 363.2 L 832.2 363.8 L 833.9 363.9 L 835.7 363.7 L 837.4 363.6 L 839.2 363.7 L 840.9 363.2 L 842.7 361.9 L 844.5 363.5 L 846.2 363.5 L 848.0 362.5 L 849.7 363.8 L 851.5 363.7 L 853.2 363.9 L 855.0 363.4 L 856.7 363.9 L 858.5 363.8 L 860.2 363.7 L 862.0 363.5 L 863.8 361.4 L 865.5 363.9 L 867.3 363.1 L 869.0 363.5 L 870.8 363.5 L 872.5 363.9 L 874.3 363.9 L 876.0 362.1 L 877.8 363.7 L 879.6 363.9 L 881.3 363.7 L 883.1 363.4 L 884.8 363.9 L 886.6 363.7 L 888.3 363.7 L 890.1 363.9 L 891.8 363.8 L 893.6 363.9 L 895.3 362.3 L 897.1 363.7 L 898.9 363.1 L 900.6 363.9 L 902.4 363.8 L 904.1 363.9 L 905.9 363.9 L 907.6 363.6 L 909.4 363.7 L 911.1 363.7 L 912.9 363.9 L 914.7 363.8 L 916.4 362.4 L 918.2 362.8 L 919.9 363.9 L 921.7 363.3 L 923.4 363.7 L 925.2 363.5 L 926.9 363.8 L 928.7 363.9 L 930.4 362.6 L 932.2 363.8 L 934.0 363.8 L 935.7 363.8 L 937.5 363.6 L 939.2 363.4 L 941.0 363.5 L 942.7 363.2 L 944.5 363.6 L 946.2 363.9 L 948.0 363.7" fill="none" stroke="#b2573f" stroke-width="3.2" stroke-linecap="round" stroke-linejoin="round"/>
<circle cx="74.0" cy="306.7" r="4.4" fill="#b2573f"/>
<circle cx="75.8" cy="309.8" r="4.4" fill="#b2573f"/>
<circle cx="77.5" cy="324.4" r="4.4" fill="#b2573f"/>
<circle cx="79.3" cy="319.5" r="4.4" fill="#b2573f"/>
<circle cx="81.0" cy="332.8" r="4.4" fill="#b2573f"/>
<circle cx="82.8" cy="333.1" r="4.4" fill="#b2573f"/>
<circle cx="84.5" cy="339.5" r="4.4" fill="#b2573f"/>
<circle cx="86.3" cy="343.0" r="4.4" fill="#b2573f"/>
<circle cx="88.0" cy="347.9" r="4.4" fill="#b2573f"/>
<circle cx="89.8" cy="351.6" r="4.4" fill="#b2573f"/>
<circle cx="91.6" cy="352.8" r="4.4" fill="#b2573f"/>
<circle cx="93.3" cy="349.3" r="4.4" fill="#b2573f"/>
<circle cx="95.1" cy="356.8" r="4.4" fill="#b2573f"/>
<circle cx="96.8" cy="358.0" r="4.4" fill="#b2573f"/>
<circle cx="98.6" cy="355.6" r="4.4" fill="#b2573f"/>
<circle cx="100.3" cy="352.3" r="4.4" fill="#b2573f"/>
<circle cx="102.1" cy="353.1" r="4.4" fill="#b2573f"/>
<circle cx="103.8" cy="357.1" r="4.4" fill="#b2573f"/>
<circle cx="105.6" cy="349.4" r="4.4" fill="#b2573f"/>
<circle cx="107.3" cy="359.1" r="4.4" fill="#b2573f"/>
<circle cx="109.1" cy="358.4" r="4.4" fill="#b2573f"/>
<circle cx="110.9" cy="357.0" r="4.4" fill="#b2573f"/>
<circle cx="112.6" cy="354.9" r="4.4" fill="#b2573f"/>
<circle cx="114.4" cy="359.7" r="4.4" fill="#b2573f"/>
<circle cx="116.1" cy="358.9" r="4.4" fill="#b2573f"/>
<circle cx="117.9" cy="359.3" r="4.4" fill="#b2573f"/>
<circle cx="119.6" cy="360.2" r="4.4" fill="#b2573f"/>
<circle cx="121.4" cy="359.1" r="4.4" fill="#b2573f"/>
<circle cx="123.1" cy="357.5" r="4.4" fill="#b2573f"/>
<circle cx="124.9" cy="360.8" r="4.4" fill="#b2573f"/>
<circle cx="126.7" cy="359.3" r="4.4" fill="#b2573f"/>
<circle cx="128.4" cy="357.8" r="4.4" fill="#b2573f"/>
<circle cx="130.2" cy="361.8" r="4.4" fill="#b2573f"/>
<circle cx="131.9" cy="359.4" r="4.4" fill="#b2573f"/>
<circle cx="133.7" cy="361.7" r="4.4" fill="#b2573f"/>
<circle cx="135.4" cy="359.3" r="4.4" fill="#b2573f"/>
<circle cx="137.2" cy="362.3" r="4.4" fill="#b2573f"/>
<circle cx="138.9" cy="360.9" r="4.4" fill="#b2573f"/>
<circle cx="140.7" cy="357.6" r="4.4" fill="#b2573f"/>
<circle cx="142.4" cy="360.8" r="4.4" fill="#b2573f"/>
<circle cx="144.2" cy="359.4" r="4.4" fill="#b2573f"/>
<circle cx="146.0" cy="362.0" r="4.4" fill="#b2573f"/>
<circle cx="147.7" cy="362.0" r="4.4" fill="#b2573f"/>
<circle cx="149.5" cy="361.0" r="4.4" fill="#b2573f"/>
<circle cx="151.2" cy="362.1" r="4.4" fill="#b2573f"/>
<circle cx="153.0" cy="361.8" r="4.4" fill="#b2573f"/>
<circle cx="154.7" cy="361.1" r="4.4" fill="#b2573f"/>
<circle cx="156.5" cy="362.1" r="4.4" fill="#b2573f"/>
<circle cx="158.2" cy="361.9" r="4.4" fill="#b2573f"/>
<circle cx="160.0" cy="360.6" r="4.4" fill="#b2573f"/>
<circle cx="161.8" cy="361.2" r="4.4" fill="#b2573f"/>
<circle cx="163.5" cy="362.7" r="4.4" fill="#b2573f"/>
<circle cx="165.3" cy="362.0" r="4.4" fill="#b2573f"/>
<circle cx="167.0" cy="362.3" r="4.4" fill="#b2573f"/>
<circle cx="168.8" cy="362.2" r="4.4" fill="#b2573f"/>
<circle cx="170.5" cy="361.6" r="4.4" fill="#b2573f"/>
<circle cx="172.3" cy="362.1" r="4.4" fill="#b2573f"/>
<circle cx="174.0" cy="362.6" r="4.4" fill="#b2573f"/>
<circle cx="175.8" cy="362.8" r="4.4" fill="#b2573f"/>
<circle cx="177.5" cy="362.9" r="4.4" fill="#b2573f"/>
<circle cx="179.3" cy="362.7" r="4.4" fill="#b2573f"/>
<circle cx="181.1" cy="362.4" r="4.4" fill="#b2573f"/>
<circle cx="182.8" cy="360.4" r="4.4" fill="#b2573f"/>
<circle cx="184.6" cy="362.9" r="4.4" fill="#b2573f"/>
<circle cx="186.3" cy="362.0" r="4.4" fill="#b2573f"/>
<circle cx="188.1" cy="360.3" r="4.4" fill="#b2573f"/>
<circle cx="189.8" cy="363.2" r="4.4" fill="#b2573f"/>
<circle cx="191.6" cy="362.0" r="4.4" fill="#b2573f"/>
<circle cx="193.3" cy="362.4" r="4.4" fill="#b2573f"/>
<circle cx="195.1" cy="361.1" r="4.4" fill="#b2573f"/>
<circle cx="196.9" cy="361.9" r="4.4" fill="#b2573f"/>
<circle cx="198.6" cy="363.1" r="4.4" fill="#b2573f"/>
<circle cx="200.4" cy="363.2" r="4.4" fill="#b2573f"/>
<circle cx="202.1" cy="363.2" r="4.4" fill="#b2573f"/>
<circle cx="203.9" cy="362.6" r="4.4" fill="#b2573f"/>
<circle cx="205.6" cy="362.4" r="4.4" fill="#b2573f"/>
<circle cx="207.4" cy="363.3" r="4.4" fill="#b2573f"/>
<circle cx="209.1" cy="362.2" r="4.4" fill="#b2573f"/>
<circle cx="210.9" cy="363.3" r="4.4" fill="#b2573f"/>
<circle cx="212.6" cy="363.3" r="4.4" fill="#b2573f"/>
<circle cx="214.4" cy="363.2" r="4.4" fill="#b2573f"/>
<circle cx="216.2" cy="356.1" r="4.4" fill="#b2573f"/>
<circle cx="217.9" cy="363.3" r="4.4" fill="#b2573f"/>
<circle cx="219.7" cy="361.9" r="4.4" fill="#b2573f"/>
<circle cx="221.4" cy="363.4" r="4.4" fill="#b2573f"/>
<circle cx="223.2" cy="362.1" r="4.4" fill="#b2573f"/>
<circle cx="224.9" cy="361.9" r="4.4" fill="#b2573f"/>
<circle cx="226.7" cy="363.4" r="4.4" fill="#b2573f"/>
<circle cx="228.4" cy="362.5" r="4.4" fill="#b2573f"/>
<circle cx="230.2" cy="362.4" r="4.4" fill="#b2573f"/>
<circle cx="232.0" cy="360.0" r="4.4" fill="#b2573f"/>
<circle cx="233.7" cy="363.1" r="4.4" fill="#b2573f"/>
<circle cx="235.5" cy="363.4" r="4.4" fill="#b2573f"/>
<circle cx="237.2" cy="362.8" r="4.4" fill="#b2573f"/>
<circle cx="239.0" cy="361.8" r="4.4" fill="#b2573f"/>
<circle cx="240.7" cy="359.1" r="4.4" fill="#b2573f"/>
<circle cx="242.5" cy="363.0" r="4.4" fill="#b2573f"/>
<circle cx="244.2" cy="363.4" r="4.4" fill="#b2573f"/>
<circle cx="246.0" cy="363.1" r="4.4" fill="#b2573f"/>
<circle cx="249.5" cy="362.2" r="4.4" fill="#b2573f"/>
<circle cx="251.3" cy="359.9" r="4.4" fill="#b2573f"/>
<circle cx="253.0" cy="360.1" r="4.4" fill="#b2573f"/>
<circle cx="254.8" cy="356.6" r="4.4" fill="#b2573f"/>
<circle cx="256.5" cy="360.9" r="4.4" fill="#b2573f"/>
<circle cx="258.3" cy="361.3" r="4.4" fill="#b2573f"/>
<circle cx="260.0" cy="361.7" r="4.4" fill="#b2573f"/>
<circle cx="261.8" cy="362.4" r="4.4" fill="#b2573f"/>
<circle cx="263.5" cy="360.9" r="4.4" fill="#b2573f"/>
<circle cx="265.3" cy="361.3" r="4.4" fill="#b2573f"/>
<circle cx="267.1" cy="362.8" r="4.4" fill="#b2573f"/>
<circle cx="268.8" cy="362.7" r="4.4" fill="#b2573f"/>
<circle cx="270.6" cy="360.9" r="4.4" fill="#b2573f"/>
<circle cx="272.3" cy="359.9" r="4.4" fill="#b2573f"/>
<circle cx="274.1" cy="361.4" r="4.4" fill="#b2573f"/>
<circle cx="275.8" cy="362.4" r="4.4" fill="#b2573f"/>
<circle cx="277.6" cy="356.9" r="4.4" fill="#b2573f"/>
<circle cx="279.3" cy="362.4" r="4.4" fill="#b2573f"/>
<circle cx="281.1" cy="361.8" r="4.4" fill="#b2573f"/>
<circle cx="282.8" cy="362.3" r="4.4" fill="#b2573f"/>
<circle cx="284.6" cy="359.7" r="4.4" fill="#b2573f"/>
<circle cx="286.4" cy="363.1" r="4.4" fill="#b2573f"/>
<circle cx="288.1" cy="361.7" r="4.4" fill="#b2573f"/>
<circle cx="289.9" cy="362.5" r="4.4" fill="#b2573f"/>
<circle cx="291.6" cy="362.9" r="4.4" fill="#b2573f"/>
<circle cx="293.4" cy="361.7" r="4.4" fill="#b2573f"/>
<circle cx="295.1" cy="361.0" r="4.4" fill="#b2573f"/>
<circle cx="296.9" cy="362.2" r="4.4" fill="#b2573f"/>
<circle cx="298.6" cy="362.9" r="4.4" fill="#b2573f"/>
<circle cx="300.4" cy="361.2" r="4.4" fill="#b2573f"/>
<circle cx="302.2" cy="363.1" r="4.4" fill="#b2573f"/>
<circle cx="303.9" cy="362.0" r="4.4" fill="#b2573f"/>
<circle cx="305.7" cy="362.4" r="4.4" fill="#b2573f"/>
<circle cx="307.4" cy="363.1" r="4.4" fill="#b2573f"/>
<circle cx="309.2" cy="363.3" r="4.4" fill="#b2573f"/>
<circle cx="310.9" cy="362.6" r="4.4" fill="#b2573f"/>
<circle cx="312.7" cy="360.2" r="4.4" fill="#b2573f"/>
<circle cx="314.4" cy="362.9" r="4.4" fill="#b2573f"/>
<circle cx="316.2" cy="362.0" r="4.4" fill="#b2573f"/>
<circle cx="317.9" cy="363.2" r="4.4" fill="#b2573f"/>
<circle cx="319.7" cy="363.2" r="4.4" fill="#b2573f"/>
<circle cx="321.5" cy="362.2" r="4.4" fill="#b2573f"/>
<circle cx="323.2" cy="362.4" r="4.4" fill="#b2573f"/>
<circle cx="325.0" cy="362.9" r="4.4" fill="#b2573f"/>
<circle cx="326.7" cy="362.4" r="4.4" fill="#b2573f"/>
<circle cx="328.5" cy="362.8" r="4.4" fill="#b2573f"/>
<circle cx="330.2" cy="362.9" r="4.4" fill="#b2573f"/>
<circle cx="332.0" cy="360.0" r="4.4" fill="#b2573f"/>
<circle cx="333.7" cy="361.6" r="4.4" fill="#b2573f"/>
<circle cx="335.5" cy="363.2" r="4.4" fill="#b2573f"/>
<circle cx="337.3" cy="362.6" r="4.4" fill="#b2573f"/>
<circle cx="339.0" cy="362.7" r="4.4" fill="#b2573f"/>
<circle cx="340.8" cy="363.2" r="4.4" fill="#b2573f"/>
<circle cx="342.5" cy="362.3" r="4.4" fill="#b2573f"/>
<circle cx="344.3" cy="362.5" r="4.4" fill="#b2573f"/>
<circle cx="346.0" cy="363.1" r="4.4" fill="#b2573f"/>
<circle cx="347.8" cy="363.1" r="4.4" fill="#b2573f"/>
<circle cx="349.5" cy="361.3" r="4.4" fill="#b2573f"/>
<circle cx="351.3" cy="363.1" r="4.4" fill="#b2573f"/>
<circle cx="353.0" cy="362.9" r="4.4" fill="#b2573f"/>
<circle cx="354.8" cy="361.4" r="4.4" fill="#b2573f"/>
<circle cx="356.6" cy="363.2" r="4.4" fill="#b2573f"/>
<circle cx="358.3" cy="359.8" r="4.4" fill="#b2573f"/>
<circle cx="360.1" cy="363.1" r="4.4" fill="#b2573f"/>
<circle cx="361.8" cy="363.4" r="4.4" fill="#b2573f"/>
<circle cx="363.6" cy="362.5" r="4.4" fill="#b2573f"/>
<circle cx="365.3" cy="362.9" r="4.4" fill="#b2573f"/>
<circle cx="367.1" cy="359.5" r="4.4" fill="#b2573f"/>
<circle cx="368.8" cy="363.4" r="4.4" fill="#b2573f"/>
<circle cx="370.6" cy="363.3" r="4.4" fill="#b2573f"/>
<circle cx="372.4" cy="363.5" r="4.4" fill="#b2573f"/>
<circle cx="374.1" cy="363.5" r="4.4" fill="#b2573f"/>
<circle cx="375.9" cy="362.9" r="4.4" fill="#b2573f"/>
<circle cx="377.6" cy="361.4" r="4.4" fill="#b2573f"/>
<circle cx="379.4" cy="363.4" r="4.4" fill="#b2573f"/>
<circle cx="381.1" cy="362.5" r="4.4" fill="#b2573f"/>
<circle cx="382.9" cy="363.4" r="4.4" fill="#b2573f"/>
<circle cx="384.6" cy="363.3" r="4.4" fill="#b2573f"/>
<circle cx="386.4" cy="361.3" r="4.4" fill="#b2573f"/>
<circle cx="388.1" cy="356.8" r="4.4" fill="#b2573f"/>
<circle cx="389.9" cy="363.3" r="4.4" fill="#b2573f"/>
<circle cx="391.7" cy="361.8" r="4.4" fill="#b2573f"/>
<circle cx="393.4" cy="362.9" r="4.4" fill="#b2573f"/>
<circle cx="395.2" cy="363.5" r="4.4" fill="#b2573f"/>
<circle cx="396.9" cy="362.1" r="4.4" fill="#b2573f"/>
<circle cx="398.7" cy="363.4" r="4.4" fill="#b2573f"/>
<circle cx="400.4" cy="361.9" r="4.4" fill="#b2573f"/>
<circle cx="402.2" cy="362.9" r="4.4" fill="#b2573f"/>
<circle cx="403.9" cy="362.2" r="4.4" fill="#b2573f"/>
<circle cx="405.7" cy="363.2" r="4.4" fill="#b2573f"/>
<circle cx="407.5" cy="363.5" r="4.4" fill="#b2573f"/>
<circle cx="409.2" cy="363.0" r="4.4" fill="#b2573f"/>
<circle cx="411.0" cy="363.3" r="4.4" fill="#b2573f"/>
<circle cx="412.7" cy="363.0" r="4.4" fill="#b2573f"/>
<circle cx="414.5" cy="362.7" r="4.4" fill="#b2573f"/>
<circle cx="416.2" cy="363.5" r="4.4" fill="#b2573f"/>
<circle cx="418.0" cy="362.5" r="4.4" fill="#b2573f"/>
<circle cx="419.7" cy="363.3" r="4.4" fill="#b2573f"/>
<circle cx="421.5" cy="360.0" r="4.4" fill="#b2573f"/>
<circle cx="423.2" cy="363.1" r="4.4" fill="#b2573f"/>
<circle cx="425.0" cy="362.2" r="4.4" fill="#b2573f"/>
<circle cx="426.8" cy="363.4" r="4.4" fill="#b2573f"/>
<circle cx="428.5" cy="362.8" r="4.4" fill="#b2573f"/>
<circle cx="430.3" cy="362.9" r="4.4" fill="#b2573f"/>
<circle cx="432.0" cy="362.1" r="4.4" fill="#b2573f"/>
<circle cx="433.8" cy="359.5" r="4.4" fill="#b2573f"/>
<circle cx="435.5" cy="363.3" r="4.4" fill="#b2573f"/>
<circle cx="437.3" cy="363.1" r="4.4" fill="#b2573f"/>
<circle cx="439.0" cy="362.5" r="4.4" fill="#b2573f"/>
<circle cx="440.8" cy="363.0" r="4.4" fill="#b2573f"/>
<circle cx="442.6" cy="363.6" r="4.4" fill="#b2573f"/>
<circle cx="444.3" cy="363.7" r="4.4" fill="#b2573f"/>
<circle cx="446.1" cy="363.1" r="4.4" fill="#b2573f"/>
<circle cx="447.8" cy="361.7" r="4.4" fill="#b2573f"/>
<circle cx="449.6" cy="361.9" r="4.4" fill="#b2573f"/>
<circle cx="451.3" cy="363.5" r="4.4" fill="#b2573f"/>
<circle cx="453.1" cy="363.3" r="4.4" fill="#b2573f"/>
<circle cx="454.8" cy="363.2" r="4.4" fill="#b2573f"/>
<circle cx="456.6" cy="363.5" r="4.4" fill="#b2573f"/>
<circle cx="458.3" cy="362.3" r="4.4" fill="#b2573f"/>
<circle cx="460.1" cy="362.7" r="4.4" fill="#b2573f"/>
<circle cx="461.9" cy="363.4" r="4.4" fill="#b2573f"/>
<circle cx="463.6" cy="363.5" r="4.4" fill="#b2573f"/>
<circle cx="465.4" cy="363.5" r="4.4" fill="#b2573f"/>
<circle cx="467.1" cy="363.2" r="4.4" fill="#b2573f"/>
<circle cx="468.9" cy="363.3" r="4.4" fill="#b2573f"/>
<circle cx="470.6" cy="363.4" r="4.4" fill="#b2573f"/>
<circle cx="472.4" cy="362.4" r="4.4" fill="#b2573f"/>
<circle cx="474.1" cy="362.9" r="4.4" fill="#b2573f"/>
<circle cx="475.9" cy="360.6" r="4.4" fill="#b2573f"/>
<circle cx="477.7" cy="361.6" r="4.4" fill="#b2573f"/>
<circle cx="479.4" cy="363.4" r="4.4" fill="#b2573f"/>
<circle cx="481.2" cy="363.2" r="4.4" fill="#b2573f"/>
<circle cx="482.9" cy="362.7" r="4.4" fill="#b2573f"/>
<circle cx="484.7" cy="362.2" r="4.4" fill="#b2573f"/>
<circle cx="486.4" cy="363.6" r="4.4" fill="#b2573f"/>
<circle cx="488.2" cy="363.0" r="4.4" fill="#b2573f"/>
<circle cx="489.9" cy="363.1" r="4.4" fill="#b2573f"/>
<circle cx="491.7" cy="363.3" r="4.4" fill="#b2573f"/>
<circle cx="493.4" cy="362.2" r="4.4" fill="#b2573f"/>
<circle cx="495.2" cy="363.2" r="4.4" fill="#b2573f"/>
<circle cx="497.0" cy="363.3" r="4.4" fill="#b2573f"/>
<circle cx="498.7" cy="362.8" r="4.4" fill="#b2573f"/>
<circle cx="500.5" cy="362.8" r="4.4" fill="#b2573f"/>
<circle cx="502.2" cy="363.4" r="4.4" fill="#b2573f"/>
<circle cx="504.0" cy="363.4" r="4.4" fill="#b2573f"/>
<circle cx="505.7" cy="363.5" r="4.4" fill="#b2573f"/>
<circle cx="507.5" cy="363.6" r="4.4" fill="#b2573f"/>
<circle cx="509.2" cy="362.4" r="4.4" fill="#b2573f"/>
<circle cx="511.0" cy="362.3" r="4.4" fill="#b2573f"/>
<circle cx="512.8" cy="363.4" r="4.4" fill="#b2573f"/>
<circle cx="514.5" cy="363.6" r="4.4" fill="#b2573f"/>
<circle cx="516.3" cy="363.2" r="4.4" fill="#b2573f"/>
<circle cx="518.0" cy="363.4" r="4.4" fill="#b2573f"/>
<circle cx="519.8" cy="363.6" r="4.4" fill="#b2573f"/>
<circle cx="521.5" cy="363.0" r="4.4" fill="#b2573f"/>
<circle cx="523.3" cy="362.3" r="4.4" fill="#b2573f"/>
<circle cx="525.0" cy="363.2" r="4.4" fill="#b2573f"/>
<circle cx="526.8" cy="363.5" r="4.4" fill="#b2573f"/>
<circle cx="528.6" cy="363.7" r="4.4" fill="#b2573f"/>
<circle cx="530.3" cy="363.6" r="4.4" fill="#b2573f"/>
<circle cx="532.1" cy="359.9" r="4.4" fill="#b2573f"/>
<circle cx="533.8" cy="363.5" r="4.4" fill="#b2573f"/>
<circle cx="535.6" cy="362.8" r="4.4" fill="#b2573f"/>
<circle cx="537.3" cy="362.5" r="4.4" fill="#b2573f"/>
<circle cx="539.1" cy="363.2" r="4.4" fill="#b2573f"/>
<circle cx="540.8" cy="363.7" r="4.4" fill="#b2573f"/>
<circle cx="542.6" cy="363.2" r="4.4" fill="#b2573f"/>
<circle cx="544.3" cy="363.7" r="4.4" fill="#b2573f"/>
<circle cx="546.1" cy="363.7" r="4.4" fill="#b2573f"/>
<circle cx="547.9" cy="361.4" r="4.4" fill="#b2573f"/>
<circle cx="549.6" cy="363.4" r="4.4" fill="#b2573f"/>
<circle cx="551.4" cy="363.1" r="4.4" fill="#b2573f"/>
<circle cx="553.1" cy="363.2" r="4.4" fill="#b2573f"/>
<circle cx="554.9" cy="363.1" r="4.4" fill="#b2573f"/>
<circle cx="556.6" cy="363.3" r="4.4" fill="#b2573f"/>
<circle cx="558.4" cy="363.0" r="4.4" fill="#b2573f"/>
<circle cx="560.1" cy="363.2" r="4.4" fill="#b2573f"/>
<circle cx="561.9" cy="363.3" r="4.4" fill="#b2573f"/>
<circle cx="563.7" cy="361.1" r="4.4" fill="#b2573f"/>
<circle cx="565.4" cy="361.9" r="4.4" fill="#b2573f"/>
<circle cx="567.2" cy="363.6" r="4.4" fill="#b2573f"/>
<circle cx="568.9" cy="363.7" r="4.4" fill="#b2573f"/>
<circle cx="570.7" cy="362.0" r="4.4" fill="#b2573f"/>
<circle cx="572.4" cy="363.7" r="4.4" fill="#b2573f"/>
<circle cx="574.2" cy="359.9" r="4.4" fill="#b2573f"/>
<circle cx="575.9" cy="363.7" r="4.4" fill="#b2573f"/>
<circle cx="577.7" cy="363.6" r="4.4" fill="#b2573f"/>
<circle cx="579.4" cy="363.8" r="4.4" fill="#b2573f"/>
<circle cx="581.2" cy="363.4" r="4.4" fill="#b2573f"/>
<circle cx="583.0" cy="363.4" r="4.4" fill="#b2573f"/>
<circle cx="584.7" cy="361.6" r="4.4" fill="#b2573f"/>
<circle cx="586.5" cy="363.8" r="4.4" fill="#b2573f"/>
<circle cx="588.2" cy="362.9" r="4.4" fill="#b2573f"/>
<circle cx="590.0" cy="363.3" r="4.4" fill="#b2573f"/>
<circle cx="591.7" cy="363.6" r="4.4" fill="#b2573f"/>
<circle cx="593.5" cy="363.7" r="4.4" fill="#b2573f"/>
<circle cx="595.2" cy="362.4" r="4.4" fill="#b2573f"/>
<circle cx="597.0" cy="363.7" r="4.4" fill="#b2573f"/>
<circle cx="598.8" cy="363.5" r="4.4" fill="#b2573f"/>
<circle cx="600.5" cy="363.7" r="4.4" fill="#b2573f"/>
<circle cx="602.3" cy="362.7" r="4.4" fill="#b2573f"/>
<circle cx="604.0" cy="361.4" r="4.4" fill="#b2573f"/>
<circle cx="605.8" cy="363.6" r="4.4" fill="#b2573f"/>
<circle cx="607.5" cy="362.5" r="4.4" fill="#b2573f"/>
<circle cx="609.3" cy="363.7" r="4.4" fill="#b2573f"/>
<circle cx="611.0" cy="361.6" r="4.4" fill="#b2573f"/>
<circle cx="612.8" cy="363.6" r="4.4" fill="#b2573f"/>
<circle cx="614.5" cy="363.4" r="4.4" fill="#b2573f"/>
<circle cx="616.3" cy="363.6" r="4.4" fill="#b2573f"/>
<circle cx="618.1" cy="363.8" r="4.4" fill="#b2573f"/>
<circle cx="619.8" cy="363.6" r="4.4" fill="#b2573f"/>
<circle cx="621.6" cy="363.6" r="4.4" fill="#b2573f"/>
<circle cx="623.3" cy="363.4" r="4.4" fill="#b2573f"/>
<circle cx="625.1" cy="363.7" r="4.4" fill="#b2573f"/>
<circle cx="626.8" cy="361.0" r="4.4" fill="#b2573f"/>
<circle cx="628.6" cy="363.7" r="4.4" fill="#b2573f"/>
<circle cx="630.3" cy="363.8" r="4.4" fill="#b2573f"/>
<circle cx="632.1" cy="363.5" r="4.4" fill="#b2573f"/>
<circle cx="633.9" cy="363.8" r="4.4" fill="#b2573f"/>
<circle cx="635.6" cy="363.2" r="4.4" fill="#b2573f"/>
<circle cx="637.4" cy="363.9" r="4.4" fill="#b2573f"/>
<circle cx="639.1" cy="363.7" r="4.4" fill="#b2573f"/>
<circle cx="640.9" cy="362.9" r="4.4" fill="#b2573f"/>
<circle cx="642.6" cy="363.7" r="4.4" fill="#b2573f"/>
<circle cx="644.4" cy="363.6" r="4.4" fill="#b2573f"/>
<circle cx="646.1" cy="363.3" r="4.4" fill="#b2573f"/>
<circle cx="647.9" cy="363.6" r="4.4" fill="#b2573f"/>
<circle cx="649.6" cy="363.4" r="4.4" fill="#b2573f"/>
<circle cx="651.4" cy="363.5" r="4.4" fill="#b2573f"/>
<circle cx="653.2" cy="363.2" r="4.4" fill="#b2573f"/>
<circle cx="654.9" cy="361.0" r="4.4" fill="#b2573f"/>
<circle cx="656.7" cy="363.7" r="4.4" fill="#b2573f"/>
<circle cx="658.4" cy="363.5" r="4.4" fill="#b2573f"/>
<circle cx="660.2" cy="361.9" r="4.4" fill="#b2573f"/>
<circle cx="661.9" cy="363.5" r="4.4" fill="#b2573f"/>
<circle cx="663.7" cy="363.6" r="4.4" fill="#b2573f"/>
<circle cx="665.4" cy="363.8" r="4.4" fill="#b2573f"/>
<circle cx="667.2" cy="363.9" r="4.4" fill="#b2573f"/>
<circle cx="669.0" cy="363.2" r="4.4" fill="#b2573f"/>
<circle cx="670.7" cy="363.8" r="4.4" fill="#b2573f"/>
<circle cx="672.5" cy="363.5" r="4.4" fill="#b2573f"/>
<circle cx="674.2" cy="363.8" r="4.4" fill="#b2573f"/>
<circle cx="676.0" cy="363.7" r="4.4" fill="#b2573f"/>
<circle cx="677.7" cy="363.8" r="4.4" fill="#b2573f"/>
<circle cx="679.5" cy="361.8" r="4.4" fill="#b2573f"/>
<circle cx="681.2" cy="361.9" r="4.4" fill="#b2573f"/>
<circle cx="683.0" cy="363.6" r="4.4" fill="#b2573f"/>
<circle cx="684.7" cy="362.2" r="4.4" fill="#b2573f"/>
<circle cx="686.5" cy="363.7" r="4.4" fill="#b2573f"/>
<circle cx="688.3" cy="363.0" r="4.4" fill="#b2573f"/>
<circle cx="690.0" cy="363.8" r="4.4" fill="#b2573f"/>
<circle cx="691.8" cy="363.5" r="4.4" fill="#b2573f"/>
<circle cx="693.5" cy="361.8" r="4.4" fill="#b2573f"/>
<circle cx="695.3" cy="363.7" r="4.4" fill="#b2573f"/>
<circle cx="697.0" cy="363.9" r="4.4" fill="#b2573f"/>
<circle cx="698.8" cy="362.9" r="4.4" fill="#b2573f"/>
<circle cx="700.5" cy="362.9" r="4.4" fill="#b2573f"/>
<circle cx="702.3" cy="363.5" r="4.4" fill="#b2573f"/>
<circle cx="704.1" cy="361.9" r="4.4" fill="#b2573f"/>
<circle cx="705.8" cy="363.9" r="4.4" fill="#b2573f"/>
<circle cx="707.6" cy="363.5" r="4.4" fill="#b2573f"/>
<circle cx="709.3" cy="361.8" r="4.4" fill="#b2573f"/>
<circle cx="711.1" cy="363.5" r="4.4" fill="#b2573f"/>
<circle cx="712.8" cy="363.2" r="4.4" fill="#b2573f"/>
<circle cx="714.6" cy="363.9" r="4.4" fill="#b2573f"/>
<circle cx="716.3" cy="363.3" r="4.4" fill="#b2573f"/>
<circle cx="718.1" cy="363.6" r="4.4" fill="#b2573f"/>
<circle cx="719.8" cy="363.4" r="4.4" fill="#b2573f"/>
<circle cx="721.6" cy="363.4" r="4.4" fill="#b2573f"/>
<circle cx="723.4" cy="363.8" r="4.4" fill="#b2573f"/>
<circle cx="725.1" cy="363.6" r="4.4" fill="#b2573f"/>
<circle cx="726.9" cy="362.3" r="4.4" fill="#b2573f"/>
<circle cx="728.6" cy="363.8" r="4.4" fill="#b2573f"/>
<circle cx="730.4" cy="363.8" r="4.4" fill="#b2573f"/>
<circle cx="732.1" cy="360.7" r="4.4" fill="#b2573f"/>
<circle cx="733.9" cy="363.4" r="4.4" fill="#b2573f"/>
<circle cx="735.6" cy="363.9" r="4.4" fill="#b2573f"/>
<circle cx="737.4" cy="363.8" r="4.4" fill="#b2573f"/>
<circle cx="739.2" cy="363.2" r="4.4" fill="#b2573f"/>
<circle cx="740.9" cy="363.8" r="4.4" fill="#b2573f"/>
<circle cx="742.7" cy="363.8" r="4.4" fill="#b2573f"/>
<circle cx="744.4" cy="363.9" r="4.4" fill="#b2573f"/>
<circle cx="746.2" cy="363.7" r="4.4" fill="#b2573f"/>
<circle cx="747.9" cy="363.4" r="4.4" fill="#b2573f"/>
<circle cx="749.7" cy="363.8" r="4.4" fill="#b2573f"/>
<circle cx="751.4" cy="363.8" r="4.4" fill="#b2573f"/>
<circle cx="753.2" cy="363.8" r="4.4" fill="#b2573f"/>
<circle cx="754.9" cy="363.9" r="4.4" fill="#b2573f"/>
<circle cx="756.7" cy="363.8" r="4.4" fill="#b2573f"/>
<circle cx="758.5" cy="363.8" r="4.4" fill="#b2573f"/>
<circle cx="760.2" cy="362.8" r="4.4" fill="#b2573f"/>
<circle cx="762.0" cy="363.7" r="4.4" fill="#b2573f"/>
<circle cx="763.7" cy="363.8" r="4.4" fill="#b2573f"/>
<circle cx="765.5" cy="363.8" r="4.4" fill="#b2573f"/>
<circle cx="767.2" cy="362.7" r="4.4" fill="#b2573f"/>
<circle cx="769.0" cy="363.8" r="4.4" fill="#b2573f"/>
<circle cx="770.7" cy="363.7" r="4.4" fill="#b2573f"/>
<circle cx="772.5" cy="363.7" r="4.4" fill="#b2573f"/>
<circle cx="774.3" cy="363.3" r="4.4" fill="#b2573f"/>
<circle cx="776.0" cy="363.8" r="4.4" fill="#b2573f"/>
<circle cx="777.8" cy="363.8" r="4.4" fill="#b2573f"/>
<circle cx="779.5" cy="361.0" r="4.4" fill="#b2573f"/>
<circle cx="781.3" cy="362.8" r="4.4" fill="#b2573f"/>
<circle cx="783.0" cy="363.4" r="4.4" fill="#b2573f"/>
<circle cx="784.8" cy="363.7" r="4.4" fill="#b2573f"/>
<circle cx="786.5" cy="363.7" r="4.4" fill="#b2573f"/>
<circle cx="788.3" cy="363.8" r="4.4" fill="#b2573f"/>
<circle cx="790.0" cy="363.8" r="4.4" fill="#b2573f"/>
<circle cx="791.8" cy="361.9" r="4.4" fill="#b2573f"/>
<circle cx="793.6" cy="363.6" r="4.4" fill="#b2573f"/>
<circle cx="795.3" cy="361.4" r="4.4" fill="#b2573f"/>
<circle cx="797.1" cy="363.7" r="4.4" fill="#b2573f"/>
<circle cx="798.8" cy="362.3" r="4.4" fill="#b2573f"/>
<circle cx="800.6" cy="363.9" r="4.4" fill="#b2573f"/>
<circle cx="802.3" cy="362.7" r="4.4" fill="#b2573f"/>
<circle cx="804.1" cy="363.5" r="4.4" fill="#b2573f"/>
<circle cx="805.8" cy="363.7" r="4.4" fill="#b2573f"/>
<circle cx="807.6" cy="361.8" r="4.4" fill="#b2573f"/>
<circle cx="809.4" cy="363.3" r="4.4" fill="#b2573f"/>
<circle cx="811.1" cy="363.0" r="4.4" fill="#b2573f"/>
<circle cx="812.9" cy="363.5" r="4.4" fill="#b2573f"/>
<circle cx="814.6" cy="363.9" r="4.4" fill="#b2573f"/>
<circle cx="816.4" cy="363.9" r="4.4" fill="#b2573f"/>
<circle cx="818.1" cy="363.8" r="4.4" fill="#b2573f"/>
<circle cx="819.9" cy="363.8" r="4.4" fill="#b2573f"/>
<circle cx="821.6" cy="363.8" r="4.4" fill="#b2573f"/>
<circle cx="823.4" cy="363.5" r="4.4" fill="#b2573f"/>
<circle cx="825.1" cy="363.3" r="4.4" fill="#b2573f"/>
<circle cx="826.9" cy="362.8" r="4.4" fill="#b2573f"/>
<circle cx="828.7" cy="363.8" r="4.4" fill="#b2573f"/>
<circle cx="830.4" cy="363.2" r="4.4" fill="#b2573f"/>
<circle cx="832.2" cy="363.8" r="4.4" fill="#b2573f"/>
<circle cx="833.9" cy="363.9" r="4.4" fill="#b2573f"/>
<circle cx="835.7" cy="363.7" r="4.4" fill="#b2573f"/>
<circle cx="837.4" cy="363.6" r="4.4" fill="#b2573f"/>
<circle cx="839.2" cy="363.7" r="4.4" fill="#b2573f"/>
<circle cx="840.9" cy="363.2" r="4.4" fill="#b2573f"/>
<circle cx="842.7" cy="361.9" r="4.4" fill="#b2573f"/>
<circle cx="844.5" cy="363.5" r="4.4" fill="#b2573f"/>
<circle cx="846.2" cy="363.5" r="4.4" fill="#b2573f"/>
<circle cx="848.0" cy="362.5" r="4.4" fill="#b2573f"/>
<circle cx="849.7" cy="363.8" r="4.4" fill="#b2573f"/>
<circle cx="851.5" cy="363.7" r="4.4" fill="#b2573f"/>
<circle cx="853.2" cy="363.9" r="4.4" fill="#b2573f"/>
<circle cx="855.0" cy="363.4" r="4.4" fill="#b2573f"/>
<circle cx="856.7" cy="363.9" r="4.4" fill="#b2573f"/>
<circle cx="858.5" cy="363.8" r="4.4" fill="#b2573f"/>
<circle cx="860.2" cy="363.7" r="4.4" fill="#b2573f"/>
<circle cx="862.0" cy="363.5" r="4.4" fill="#b2573f"/>
<circle cx="863.8" cy="361.4" r="4.4" fill="#b2573f"/>
<circle cx="865.5" cy="363.9" r="4.4" fill="#b2573f"/>
<circle cx="867.3" cy="363.1" r="4.4" fill="#b2573f"/>
<circle cx="869.0" cy="363.5" r="4.4" fill="#b2573f"/>
<circle cx="870.8" cy="363.5" r="4.4" fill="#b2573f"/>
<circle cx="872.5" cy="363.9" r="4.4" fill="#b2573f"/>
<circle cx="874.3" cy="363.9" r="4.4" fill="#b2573f"/>
<circle cx="876.0" cy="362.1" r="4.4" fill="#b2573f"/>
<circle cx="877.8" cy="363.7" r="4.4" fill="#b2573f"/>
<circle cx="879.6" cy="363.9" r="4.4" fill="#b2573f"/>
<circle cx="881.3" cy="363.7" r="4.4" fill="#b2573f"/>
<circle cx="883.1" cy="363.4" r="4.4" fill="#b2573f"/>
<circle cx="884.8" cy="363.9" r="4.4" fill="#b2573f"/>
<circle cx="886.6" cy="363.7" r="4.4" fill="#b2573f"/>
<circle cx="888.3" cy="363.7" r="4.4" fill="#b2573f"/>
<circle cx="890.1" cy="363.9" r="4.4" fill="#b2573f"/>
<circle cx="891.8" cy="363.8" r="4.4" fill="#b2573f"/>
<circle cx="893.6" cy="363.9" r="4.4" fill="#b2573f"/>
<circle cx="895.3" cy="362.3" r="4.4" fill="#b2573f"/>
<circle cx="897.1" cy="363.7" r="4.4" fill="#b2573f"/>
<circle cx="898.9" cy="363.1" r="4.4" fill="#b2573f"/>
<circle cx="900.6" cy="363.9" r="4.4" fill="#b2573f"/>
<circle cx="902.4" cy="363.8" r="4.4" fill="#b2573f"/>
<circle cx="904.1" cy="363.9" r="4.4" fill="#b2573f"/>
<circle cx="905.9" cy="363.9" r="4.4" fill="#b2573f"/>
<circle cx="907.6" cy="363.6" r="4.4" fill="#b2573f"/>
<circle cx="909.4" cy="363.7" r="4.4" fill="#b2573f"/>
<circle cx="911.1" cy="363.7" r="4.4" fill="#b2573f"/>
<circle cx="912.9" cy="363.9" r="4.4" fill="#b2573f"/>
<circle cx="914.7" cy="363.8" r="4.4" fill="#b2573f"/>
<circle cx="916.4" cy="362.4" r="4.4" fill="#b2573f"/>
<circle cx="918.2" cy="362.8" r="4.4" fill="#b2573f"/>
<circle cx="919.9" cy="363.9" r="4.4" fill="#b2573f"/>
<circle cx="921.7" cy="363.3" r="4.4" fill="#b2573f"/>
<circle cx="923.4" cy="363.7" r="4.4" fill="#b2573f"/>
<circle cx="925.2" cy="363.5" r="4.4" fill="#b2573f"/>
<circle cx="926.9" cy="363.8" r="4.4" fill="#b2573f"/>
<circle cx="928.7" cy="363.9" r="4.4" fill="#b2573f"/>
<circle cx="930.4" cy="362.6" r="4.4" fill="#b2573f"/>
<circle cx="932.2" cy="363.8" r="4.4" fill="#b2573f"/>
<circle cx="934.0" cy="363.8" r="4.4" fill="#b2573f"/>
<circle cx="935.7" cy="363.8" r="4.4" fill="#b2573f"/>
<circle cx="937.5" cy="363.6" r="4.4" fill="#b2573f"/>
<circle cx="939.2" cy="363.4" r="4.4" fill="#b2573f"/>
<circle cx="941.0" cy="363.5" r="4.4" fill="#b2573f"/>
<circle cx="942.7" cy="363.2" r="4.4" fill="#b2573f"/>
<circle cx="944.5" cy="363.6" r="4.4" fill="#b2573f"/>
<circle cx="946.2" cy="363.9" r="4.4" fill="#b2573f"/>
<circle cx="948.0" cy="363.7" r="4.4" fill="#b2573f"/>
<circle cx="82" cy="399" r="5" fill="#b2573f"/>
<text x="96" y="404" fill="#cbd5e1" font-size="14">train/loss_total</text>
<path d="M 74.0 70.0 L 75.8 96.7 L 77.5 124.6 L 79.3 148.3 L 81.0 174.5 L 82.8 196.1 L 84.5 218.5 L 86.3 238.9 L 88.0 257.7 L 89.8 273.5 L 91.6 285.8 L 93.3 297.4 L 95.1 305.7 L 96.8 310.9 L 98.6 314.2 L 100.3 317.0 L 102.1 318.4 L 103.8 320.5 L 105.6 319.9 L 107.3 321.0 L 109.1 321.6 L 110.9 323.2 L 112.6 324.3 L 114.4 326.1 L 116.1 327.1 L 117.9 327.0 L 119.6 327.4 L 121.4 331.8 L 123.1 330.5 L 124.9 328.4 L 126.7 332.2 L 128.4 331.3 L 130.2 330.9 L 131.9 330.3 L 133.7 330.0 L 135.4 332.3 L 137.2 333.3 L 138.9 333.8 L 140.7 332.9 L 142.4 332.1 L 144.2 334.3 L 146.0 332.3 L 147.7 334.6 L 149.5 336.0 L 151.2 333.6 L 153.0 332.3 L 154.7 336.4 L 156.5 334.8 L 158.2 337.8 L 160.0 335.0 L 161.8 332.5 L 163.5 333.2 L 165.3 334.7 L 167.0 334.6 L 168.8 335.3 L 170.5 336.4 L 172.3 336.7 L 174.0 334.5 L 175.8 334.8 L 177.5 335.3 L 179.3 332.3 L 181.1 333.2 L 182.8 334.8 L 184.6 332.4 L 186.3 331.8 L 188.1 334.3 L 189.8 335.2 L 191.6 332.5 L 193.3 329.8 L 195.1 330.4 L 196.9 330.5 L 198.6 327.4 L 200.4 329.7 L 202.1 329.9 L 203.9 329.9 L 205.6 329.6 L 207.4 325.0 L 209.1 330.6 L 210.9 330.9 L 212.6 326.7 L 214.4 328.3 L 216.2 324.6 L 217.9 323.8 L 219.7 324.6 L 221.4 325.5 L 223.2 321.9 L 224.9 321.2 L 226.7 323.2 L 228.4 327.7 L 230.2 325.1 L 232.0 321.9 L 233.7 324.2 L 235.5 324.6 L 237.2 321.5 L 239.0 321.2 L 240.7 322.7 L 242.5 322.2 L 244.2 317.2 L 246.0 320.5 L 249.5 325.2 L 251.3 327.1 L 253.0 322.0 L 254.8 327.2 L 256.5 330.5 L 258.3 324.9 L 260.0 332.1 L 261.8 329.8 L 263.5 332.4 L 265.3 325.0 L 267.1 328.0 L 268.8 331.5 L 270.6 327.8 L 272.3 328.6 L 274.1 330.6 L 275.8 331.1 L 277.6 329.7 L 279.3 327.0 L 281.1 333.4 L 282.8 327.6 L 284.6 330.3 L 286.4 333.7 L 288.1 330.7 L 289.9 328.4 L 291.6 330.2 L 293.4 339.4 L 295.1 333.5 L 296.9 324.8 L 298.6 331.0 L 300.4 330.5 L 302.2 329.7 L 303.9 328.3 L 305.7 326.8 L 307.4 328.9 L 309.2 325.7 L 310.9 333.5 L 312.7 331.7 L 314.4 329.1 L 316.2 330.3 L 317.9 329.2 L 319.7 331.8 L 321.5 332.0 L 323.2 329.4 L 325.0 332.6 L 326.7 332.6 L 328.5 330.8 L 330.2 335.8 L 332.0 330.7 L 333.7 333.6 L 335.5 331.7 L 337.3 330.4 L 339.0 330.1 L 340.8 332.1 L 342.5 325.5 L 344.3 331.5 L 346.0 330.2 L 347.8 330.6 L 349.5 331.5 L 351.3 325.8 L 353.0 327.2 L 354.8 331.7 L 356.6 328.7 L 358.3 328.0 L 360.1 329.3 L 361.8 329.9 L 363.6 330.0 L 365.3 326.9 L 367.1 328.1 L 368.8 329.0 L 370.6 326.3 L 372.4 327.6 L 374.1 328.3 L 375.9 328.7 L 377.6 327.9 L 379.4 330.0 L 381.1 331.0 L 382.9 331.0 L 384.6 327.2 L 386.4 327.2 L 388.1 328.3 L 389.9 325.3 L 391.7 326.3 L 393.4 327.5 L 395.2 331.2 L 396.9 330.4 L 398.7 326.0 L 400.4 330.4 L 402.2 328.4 L 403.9 330.7 L 405.7 329.6 L 407.5 328.3 L 409.2 325.6 L 411.0 324.7 L 412.7 328.7 L 414.5 328.2 L 416.2 322.6 L 418.0 326.0 L 419.7 324.4 L 421.5 331.1 L 423.2 333.5 L 425.0 328.3 L 426.8 327.9 L 428.5 327.8 L 430.3 330.3 L 432.0 329.1 L 433.8 323.2 L 435.5 326.9 L 437.3 325.8 L 439.0 325.2 L 440.8 325.2 L 442.6 331.9 L 444.3 328.7 L 446.1 331.2 L 447.8 323.3 L 449.6 327.9 L 451.3 324.5 L 453.1 322.8 L 454.8 325.0 L 456.6 330.0 L 458.3 328.6 L 460.1 325.8 L 461.9 332.5 L 463.6 330.7 L 465.4 323.6 L 467.1 324.2 L 468.9 329.4 L 470.6 320.5 L 472.4 323.8 L 474.1 329.2 L 475.9 324.7 L 477.7 320.9 L 479.4 326.6 L 481.2 321.2 L 482.9 319.6 L 484.7 324.2 L 486.4 324.2 L 488.2 316.4 L 489.9 322.9 L 491.7 322.9 L 493.4 325.3 L 495.2 326.8 L 497.0 316.8 L 498.7 324.1 L 500.5 326.2 L 502.2 326.6 L 504.0 323.0 L 505.7 323.2 L 507.5 326.5 L 509.2 324.0 L 511.0 317.8 L 512.8 324.0 L 514.5 324.4 L 516.3 322.0 L 518.0 329.0 L 519.8 328.6 L 521.5 320.3 L 523.3 323.4 L 525.0 325.9 L 526.8 325.7 L 528.6 320.1 L 530.3 329.4 L 532.1 320.5 L 533.8 320.7 L 535.6 325.0 L 537.3 322.0 L 539.1 323.7 L 540.8 323.2 L 542.6 320.7 L 544.3 319.5 L 546.1 320.1 L 547.9 328.9 L 549.6 326.3 L 551.4 326.7 L 553.1 324.4 L 554.9 324.6 L 556.6 327.9 L 558.4 321.4 L 560.1 319.7 L 561.9 325.9 L 563.7 321.6 L 565.4 320.8 L 567.2 327.2 L 568.9 320.7 L 570.7 314.3 L 572.4 322.2 L 574.2 323.1 L 575.9 321.6 L 577.7 325.4 L 579.4 325.7 L 581.2 328.1 L 583.0 329.8 L 584.7 321.1 L 586.5 318.5 L 588.2 316.8 L 590.0 324.0 L 591.7 316.2 L 593.5 315.9 L 595.2 322.0 L 597.0 318.4 L 598.8 322.0 L 600.5 324.3 L 602.3 322.8 L 604.0 321.0 L 605.8 319.7 L 607.5 322.9 L 609.3 322.4 L 611.0 327.2 L 612.8 323.5 L 614.5 322.7 L 616.3 315.4 L 618.1 317.3 L 619.8 318.1 L 621.6 324.6 L 623.3 324.0 L 625.1 324.8 L 626.8 318.9 L 628.6 317.9 L 630.3 317.2 L 632.1 319.4 L 633.9 323.5 L 635.6 318.7 L 637.4 319.1 L 639.1 321.0 L 640.9 319.4 L 642.6 321.6 L 644.4 323.2 L 646.1 318.6 L 647.9 323.4 L 649.6 319.2 L 651.4 320.8 L 653.2 319.8 L 654.9 322.3 L 656.7 315.6 L 658.4 322.2 L 660.2 322.3 L 661.9 317.1 L 663.7 314.0 L 665.4 317.0 L 667.2 317.0 L 669.0 326.2 L 670.7 318.0 L 672.5 323.1 L 674.2 314.9 L 676.0 319.8 L 677.7 311.1 L 679.5 321.4 L 681.2 321.1 L 683.0 318.6 L 684.7 325.6 L 686.5 320.6 L 688.3 322.4 L 690.0 317.7 L 691.8 321.9 L 693.5 318.0 L 695.3 322.9 L 697.0 322.8 L 698.8 316.3 L 700.5 319.8 L 702.3 320.5 L 704.1 315.3 L 705.8 312.2 L 707.6 317.8 L 709.3 319.5 L 711.1 322.4 L 712.8 319.2 L 714.6 325.5 L 716.3 321.8 L 718.1 314.3 L 719.8 318.8 L 721.6 319.2 L 723.4 317.6 L 725.1 310.6 L 726.9 316.8 L 728.6 314.0 L 730.4 319.8 L 732.1 324.3 L 733.9 318.1 L 735.6 318.6 L 737.4 313.0 L 739.2 317.0 L 740.9 317.9 L 742.7 317.7 L 744.4 314.0 L 746.2 322.7 L 747.9 323.8 L 749.7 319.9 L 751.4 318.1 L 753.2 313.3 L 754.9 311.7 L 756.7 322.9 L 758.5 323.0 L 760.2 318.3 L 762.0 320.5 L 763.7 310.1 L 765.5 322.3 L 767.2 320.6 L 769.0 320.8 L 770.7 318.3 L 772.5 311.2 L 774.3 321.5 L 776.0 318.8 L 777.8 316.8 L 779.5 320.4 L 781.3 312.7 L 783.0 320.2 L 784.8 319.0 L 786.5 312.6 L 788.3 309.8 L 790.0 314.9 L 791.8 315.1 L 793.6 313.7 L 795.3 311.0 L 797.1 314.4 L 798.8 312.5 L 800.6 319.9 L 802.3 310.3 L 804.1 319.0 L 805.8 311.7 L 807.6 311.9 L 809.4 313.5 L 811.1 315.8 L 812.9 310.4 L 814.6 308.2 L 816.4 317.4 L 818.1 307.5 L 819.9 322.1 L 821.6 312.3 L 823.4 309.6 L 825.1 310.8 L 826.9 314.0 L 828.7 315.0 L 830.4 318.1 L 832.2 312.5 L 833.9 313.8 L 835.7 315.2 L 837.4 315.1 L 839.2 308.1 L 840.9 308.3 L 842.7 320.2 L 844.5 312.3 L 846.2 307.7 L 848.0 312.2 L 849.7 313.8 L 851.5 319.4 L 853.2 312.2 L 855.0 311.6 L 856.7 312.6 L 858.5 314.2 L 860.2 316.9 L 862.0 320.2 L 863.8 307.9 L 865.5 318.1 L 867.3 310.0 L 869.0 311.8 L 870.8 314.0 L 872.5 305.2 L 874.3 315.9 L 876.0 309.1 L 877.8 318.7 L 879.6 310.8 L 881.3 308.0 L 883.1 313.6 L 884.8 312.9 L 886.6 312.8 L 888.3 315.9 L 890.1 316.8 L 891.8 318.5 L 893.6 307.4 L 895.3 312.4 L 897.1 310.6 L 898.9 320.0 L 900.6 317.4 L 902.4 315.3 L 904.1 313.1 L 905.9 312.8 L 907.6 317.5 L 909.4 306.5 L 911.1 312.1 L 912.9 311.4 L 914.7 310.2 L 916.4 316.3 L 918.2 316.8 L 919.9 315.4 L 921.7 309.6 L 923.4 313.1 L 925.2 313.4 L 926.9 310.9 L 928.7 313.5 L 930.4 312.9 L 932.2 320.3 L 934.0 311.2 L 935.7 313.8 L 937.5 317.0 L 939.2 312.2 L 941.0 315.4 L 942.7 308.6 L 944.5 308.7 L 946.2 317.5 L 948.0 310.7" fill="none" stroke="#3e7cb1" stroke-width="3.2" stroke-linecap="round" stroke-linejoin="round"/>
<circle cx="74.0" cy="70.0" r="4.4" fill="#3e7cb1"/>
<circle cx="75.8" cy="96.7" r="4.4" fill="#3e7cb1"/>
<circle cx="77.5" cy="124.6" r="4.4" fill="#3e7cb1"/>
<circle cx="79.3" cy="148.3" r="4.4" fill="#3e7cb1"/>
<circle cx="81.0" cy="174.5" r="4.4" fill="#3e7cb1"/>
<circle cx="82.8" cy="196.1" r="4.4" fill="#3e7cb1"/>
<circle cx="84.5" cy="218.5" r="4.4" fill="#3e7cb1"/>
<circle cx="86.3" cy="238.9" r="4.4" fill="#3e7cb1"/>
<circle cx="88.0" cy="257.7" r="4.4" fill="#3e7cb1"/>
<circle cx="89.8" cy="273.5" r="4.4" fill="#3e7cb1"/>
<circle cx="91.6" cy="285.8" r="4.4" fill="#3e7cb1"/>
<circle cx="93.3" cy="297.4" r="4.4" fill="#3e7cb1"/>
<circle cx="95.1" cy="305.7" r="4.4" fill="#3e7cb1"/>
<circle cx="96.8" cy="310.9" r="4.4" fill="#3e7cb1"/>
<circle cx="98.6" cy="314.2" r="4.4" fill="#3e7cb1"/>
<circle cx="100.3" cy="317.0" r="4.4" fill="#3e7cb1"/>
<circle cx="102.1" cy="318.4" r="4.4" fill="#3e7cb1"/>
<circle cx="103.8" cy="320.5" r="4.4" fill="#3e7cb1"/>
<circle cx="105.6" cy="319.9" r="4.4" fill="#3e7cb1"/>
<circle cx="107.3" cy="321.0" r="4.4" fill="#3e7cb1"/>
<circle cx="109.1" cy="321.6" r="4.4" fill="#3e7cb1"/>
<circle cx="110.9" cy="323.2" r="4.4" fill="#3e7cb1"/>
<circle cx="112.6" cy="324.3" r="4.4" fill="#3e7cb1"/>
<circle cx="114.4" cy="326.1" r="4.4" fill="#3e7cb1"/>
<circle cx="116.1" cy="327.1" r="4.4" fill="#3e7cb1"/>
<circle cx="117.9" cy="327.0" r="4.4" fill="#3e7cb1"/>
<circle cx="119.6" cy="327.4" r="4.4" fill="#3e7cb1"/>
<circle cx="121.4" cy="331.8" r="4.4" fill="#3e7cb1"/>
<circle cx="123.1" cy="330.5" r="4.4" fill="#3e7cb1"/>
<circle cx="124.9" cy="328.4" r="4.4" fill="#3e7cb1"/>
<circle cx="126.7" cy="332.2" r="4.4" fill="#3e7cb1"/>
<circle cx="128.4" cy="331.3" r="4.4" fill="#3e7cb1"/>
<circle cx="130.2" cy="330.9" r="4.4" fill="#3e7cb1"/>
<circle cx="131.9" cy="330.3" r="4.4" fill="#3e7cb1"/>
<circle cx="133.7" cy="330.0" r="4.4" fill="#3e7cb1"/>
<circle cx="135.4" cy="332.3" r="4.4" fill="#3e7cb1"/>
<circle cx="137.2" cy="333.3" r="4.4" fill="#3e7cb1"/>
<circle cx="138.9" cy="333.8" r="4.4" fill="#3e7cb1"/>
<circle cx="140.7" cy="332.9" r="4.4" fill="#3e7cb1"/>
<circle cx="142.4" cy="332.1" r="4.4" fill="#3e7cb1"/>
<circle cx="144.2" cy="334.3" r="4.4" fill="#3e7cb1"/>
<circle cx="146.0" cy="332.3" r="4.4" fill="#3e7cb1"/>
<circle cx="147.7" cy="334.6" r="4.4" fill="#3e7cb1"/>
<circle cx="149.5" cy="336.0" r="4.4" fill="#3e7cb1"/>
<circle cx="151.2" cy="333.6" r="4.4" fill="#3e7cb1"/>
<circle cx="153.0" cy="332.3" r="4.4" fill="#3e7cb1"/>
<circle cx="154.7" cy="336.4" r="4.4" fill="#3e7cb1"/>
<circle cx="156.5" cy="334.8" r="4.4" fill="#3e7cb1"/>
<circle cx="158.2" cy="337.8" r="4.4" fill="#3e7cb1"/>
<circle cx="160.0" cy="335.0" r="4.4" fill="#3e7cb1"/>
<circle cx="161.8" cy="332.5" r="4.4" fill="#3e7cb1"/>
<circle cx="163.5" cy="333.2" r="4.4" fill="#3e7cb1"/>
<circle cx="165.3" cy="334.7" r="4.4" fill="#3e7cb1"/>
<circle cx="167.0" cy="334.6" r="4.4" fill="#3e7cb1"/>
<circle cx="168.8" cy="335.3" r="4.4" fill="#3e7cb1"/>
<circle cx="170.5" cy="336.4" r="4.4" fill="#3e7cb1"/>
<circle cx="172.3" cy="336.7" r="4.4" fill="#3e7cb1"/>
<circle cx="174.0" cy="334.5" r="4.4" fill="#3e7cb1"/>
<circle cx="175.8" cy="334.8" r="4.4" fill="#3e7cb1"/>
<circle cx="177.5" cy="335.3" r="4.4" fill="#3e7cb1"/>
<circle cx="179.3" cy="332.3" r="4.4" fill="#3e7cb1"/>
<circle cx="181.1" cy="333.2" r="4.4" fill="#3e7cb1"/>
<circle cx="182.8" cy="334.8" r="4.4" fill="#3e7cb1"/>
<circle cx="184.6" cy="332.4" r="4.4" fill="#3e7cb1"/>
<circle cx="186.3" cy="331.8" r="4.4" fill="#3e7cb1"/>
<circle cx="188.1" cy="334.3" r="4.4" fill="#3e7cb1"/>
<circle cx="189.8" cy="335.2" r="4.4" fill="#3e7cb1"/>
<circle cx="191.6" cy="332.5" r="4.4" fill="#3e7cb1"/>
<circle cx="193.3" cy="329.8" r="4.4" fill="#3e7cb1"/>
<circle cx="195.1" cy="330.4" r="4.4" fill="#3e7cb1"/>
<circle cx="196.9" cy="330.5" r="4.4" fill="#3e7cb1"/>
<circle cx="198.6" cy="327.4" r="4.4" fill="#3e7cb1"/>
<circle cx="200.4" cy="329.7" r="4.4" fill="#3e7cb1"/>
<circle cx="202.1" cy="329.9" r="4.4" fill="#3e7cb1"/>
<circle cx="203.9" cy="329.9" r="4.4" fill="#3e7cb1"/>
<circle cx="205.6" cy="329.6" r="4.4" fill="#3e7cb1"/>
<circle cx="207.4" cy="325.0" r="4.4" fill="#3e7cb1"/>
<circle cx="209.1" cy="330.6" r="4.4" fill="#3e7cb1"/>
<circle cx="210.9" cy="330.9" r="4.4" fill="#3e7cb1"/>
<circle cx="212.6" cy="326.7" r="4.4" fill="#3e7cb1"/>
<circle cx="214.4" cy="328.3" r="4.4" fill="#3e7cb1"/>
<circle cx="216.2" cy="324.6" r="4.4" fill="#3e7cb1"/>
<circle cx="217.9" cy="323.8" r="4.4" fill="#3e7cb1"/>
<circle cx="219.7" cy="324.6" r="4.4" fill="#3e7cb1"/>
<circle cx="221.4" cy="325.5" r="4.4" fill="#3e7cb1"/>
<circle cx="223.2" cy="321.9" r="4.4" fill="#3e7cb1"/>
<circle cx="224.9" cy="321.2" r="4.4" fill="#3e7cb1"/>
<circle cx="226.7" cy="323.2" r="4.4" fill="#3e7cb1"/>
<circle cx="228.4" cy="327.7" r="4.4" fill="#3e7cb1"/>
<circle cx="230.2" cy="325.1" r="4.4" fill="#3e7cb1"/>
<circle cx="232.0" cy="321.9" r="4.4" fill="#3e7cb1"/>
<circle cx="233.7" cy="324.2" r="4.4" fill="#3e7cb1"/>
<circle cx="235.5" cy="324.6" r="4.4" fill="#3e7cb1"/>
<circle cx="237.2" cy="321.5" r="4.4" fill="#3e7cb1"/>
<circle cx="239.0" cy="321.2" r="4.4" fill="#3e7cb1"/>
<circle cx="240.7" cy="322.7" r="4.4" fill="#3e7cb1"/>
<circle cx="242.5" cy="322.2" r="4.4" fill="#3e7cb1"/>
<circle cx="244.2" cy="317.2" r="4.4" fill="#3e7cb1"/>
<circle cx="246.0" cy="320.5" r="4.4" fill="#3e7cb1"/>
<circle cx="249.5" cy="325.2" r="4.4" fill="#3e7cb1"/>
<circle cx="251.3" cy="327.1" r="4.4" fill="#3e7cb1"/>
<circle cx="253.0" cy="322.0" r="4.4" fill="#3e7cb1"/>
<circle cx="254.8" cy="327.2" r="4.4" fill="#3e7cb1"/>
<circle cx="256.5" cy="330.5" r="4.4" fill="#3e7cb1"/>
<circle cx="258.3" cy="324.9" r="4.4" fill="#3e7cb1"/>
<circle cx="260.0" cy="332.1" r="4.4" fill="#3e7cb1"/>
<circle cx="261.8" cy="329.8" r="4.4" fill="#3e7cb1"/>
<circle cx="263.5" cy="332.4" r="4.4" fill="#3e7cb1"/>
<circle cx="265.3" cy="325.0" r="4.4" fill="#3e7cb1"/>
<circle cx="267.1" cy="328.0" r="4.4" fill="#3e7cb1"/>
<circle cx="268.8" cy="331.5" r="4.4" fill="#3e7cb1"/>
<circle cx="270.6" cy="327.8" r="4.4" fill="#3e7cb1"/>
<circle cx="272.3" cy="328.6" r="4.4" fill="#3e7cb1"/>
<circle cx="274.1" cy="330.6" r="4.4" fill="#3e7cb1"/>
<circle cx="275.8" cy="331.1" r="4.4" fill="#3e7cb1"/>
<circle cx="277.6" cy="329.7" r="4.4" fill="#3e7cb1"/>
<circle cx="279.3" cy="327.0" r="4.4" fill="#3e7cb1"/>
<circle cx="281.1" cy="333.4" r="4.4" fill="#3e7cb1"/>
<circle cx="282.8" cy="327.6" r="4.4" fill="#3e7cb1"/>
<circle cx="284.6" cy="330.3" r="4.4" fill="#3e7cb1"/>
<circle cx="286.4" cy="333.7" r="4.4" fill="#3e7cb1"/>
<circle cx="288.1" cy="330.7" r="4.4" fill="#3e7cb1"/>
<circle cx="289.9" cy="328.4" r="4.4" fill="#3e7cb1"/>
<circle cx="291.6" cy="330.2" r="4.4" fill="#3e7cb1"/>
<circle cx="293.4" cy="339.4" r="4.4" fill="#3e7cb1"/>
<circle cx="295.1" cy="333.5" r="4.4" fill="#3e7cb1"/>
<circle cx="296.9" cy="324.8" r="4.4" fill="#3e7cb1"/>
<circle cx="298.6" cy="331.0" r="4.4" fill="#3e7cb1"/>
<circle cx="300.4" cy="330.5" r="4.4" fill="#3e7cb1"/>
<circle cx="302.2" cy="329.7" r="4.4" fill="#3e7cb1"/>
<circle cx="303.9" cy="328.3" r="4.4" fill="#3e7cb1"/>
<circle cx="305.7" cy="326.8" r="4.4" fill="#3e7cb1"/>
<circle cx="307.4" cy="328.9" r="4.4" fill="#3e7cb1"/>
<circle cx="309.2" cy="325.7" r="4.4" fill="#3e7cb1"/>
<circle cx="310.9" cy="333.5" r="4.4" fill="#3e7cb1"/>
<circle cx="312.7" cy="331.7" r="4.4" fill="#3e7cb1"/>
<circle cx="314.4" cy="329.1" r="4.4" fill="#3e7cb1"/>
<circle cx="316.2" cy="330.3" r="4.4" fill="#3e7cb1"/>
<circle cx="317.9" cy="329.2" r="4.4" fill="#3e7cb1"/>
<circle cx="319.7" cy="331.8" r="4.4" fill="#3e7cb1"/>
<circle cx="321.5" cy="332.0" r="4.4" fill="#3e7cb1"/>
<circle cx="323.2" cy="329.4" r="4.4" fill="#3e7cb1"/>
<circle cx="325.0" cy="332.6" r="4.4" fill="#3e7cb1"/>
<circle cx="326.7" cy="332.6" r="4.4" fill="#3e7cb1"/>
<circle cx="328.5" cy="330.8" r="4.4" fill="#3e7cb1"/>
<circle cx="330.2" cy="335.8" r="4.4" fill="#3e7cb1"/>
<circle cx="332.0" cy="330.7" r="4.4" fill="#3e7cb1"/>
<circle cx="333.7" cy="333.6" r="4.4" fill="#3e7cb1"/>
<circle cx="335.5" cy="331.7" r="4.4" fill="#3e7cb1"/>
<circle cx="337.3" cy="330.4" r="4.4" fill="#3e7cb1"/>
<circle cx="339.0" cy="330.1" r="4.4" fill="#3e7cb1"/>
<circle cx="340.8" cy="332.1" r="4.4" fill="#3e7cb1"/>
<circle cx="342.5" cy="325.5" r="4.4" fill="#3e7cb1"/>
<circle cx="344.3" cy="331.5" r="4.4" fill="#3e7cb1"/>
<circle cx="346.0" cy="330.2" r="4.4" fill="#3e7cb1"/>
<circle cx="347.8" cy="330.6" r="4.4" fill="#3e7cb1"/>
<circle cx="349.5" cy="331.5" r="4.4" fill="#3e7cb1"/>
<circle cx="351.3" cy="325.8" r="4.4" fill="#3e7cb1"/>
<circle cx="353.0" cy="327.2" r="4.4" fill="#3e7cb1"/>
<circle cx="354.8" cy="331.7" r="4.4" fill="#3e7cb1"/>
<circle cx="356.6" cy="328.7" r="4.4" fill="#3e7cb1"/>
<circle cx="358.3" cy="328.0" r="4.4" fill="#3e7cb1"/>
<circle cx="360.1" cy="329.3" r="4.4" fill="#3e7cb1"/>
<circle cx="361.8" cy="329.9" r="4.4" fill="#3e7cb1"/>
<circle cx="363.6" cy="330.0" r="4.4" fill="#3e7cb1"/>
<circle cx="365.3" cy="326.9" r="4.4" fill="#3e7cb1"/>
<circle cx="367.1" cy="328.1" r="4.4" fill="#3e7cb1"/>
<circle cx="368.8" cy="329.0" r="4.4" fill="#3e7cb1"/>
<circle cx="370.6" cy="326.3" r="4.4" fill="#3e7cb1"/>
<circle cx="372.4" cy="327.6" r="4.4" fill="#3e7cb1"/>
<circle cx="374.1" cy="328.3" r="4.4" fill="#3e7cb1"/>
<circle cx="375.9" cy="328.7" r="4.4" fill="#3e7cb1"/>
<circle cx="377.6" cy="327.9" r="4.4" fill="#3e7cb1"/>
<circle cx="379.4" cy="330.0" r="4.4" fill="#3e7cb1"/>
<circle cx="381.1" cy="331.0" r="4.4" fill="#3e7cb1"/>
<circle cx="382.9" cy="331.0" r="4.4" fill="#3e7cb1"/>
<circle cx="384.6" cy="327.2" r="4.4" fill="#3e7cb1"/>
<circle cx="386.4" cy="327.2" r="4.4" fill="#3e7cb1"/>
<circle cx="388.1" cy="328.3" r="4.4" fill="#3e7cb1"/>
<circle cx="389.9" cy="325.3" r="4.4" fill="#3e7cb1"/>
<circle cx="391.7" cy="326.3" r="4.4" fill="#3e7cb1"/>
<circle cx="393.4" cy="327.5" r="4.4" fill="#3e7cb1"/>
<circle cx="395.2" cy="331.2" r="4.4" fill="#3e7cb1"/>
<circle cx="396.9" cy="330.4" r="4.4" fill="#3e7cb1"/>
<circle cx="398.7" cy="326.0" r="4.4" fill="#3e7cb1"/>
<circle cx="400.4" cy="330.4" r="4.4" fill="#3e7cb1"/>
<circle cx="402.2" cy="328.4" r="4.4" fill="#3e7cb1"/>
<circle cx="403.9" cy="330.7" r="4.4" fill="#3e7cb1"/>
<circle cx="405.7" cy="329.6" r="4.4" fill="#3e7cb1"/>
<circle cx="407.5" cy="328.3" r="4.4" fill="#3e7cb1"/>
<circle cx="409.2" cy="325.6" r="4.4" fill="#3e7cb1"/>
<circle cx="411.0" cy="324.7" r="4.4" fill="#3e7cb1"/>
<circle cx="412.7" cy="328.7" r="4.4" fill="#3e7cb1"/>
<circle cx="414.5" cy="328.2" r="4.4" fill="#3e7cb1"/>
<circle cx="416.2" cy="322.6" r="4.4" fill="#3e7cb1"/>
<circle cx="418.0" cy="326.0" r="4.4" fill="#3e7cb1"/>
<circle cx="419.7" cy="324.4" r="4.4" fill="#3e7cb1"/>
<circle cx="421.5" cy="331.1" r="4.4" fill="#3e7cb1"/>
<circle cx="423.2" cy="333.5" r="4.4" fill="#3e7cb1"/>
<circle cx="425.0" cy="328.3" r="4.4" fill="#3e7cb1"/>
<circle cx="426.8" cy="327.9" r="4.4" fill="#3e7cb1"/>
<circle cx="428.5" cy="327.8" r="4.4" fill="#3e7cb1"/>
<circle cx="430.3" cy="330.3" r="4.4" fill="#3e7cb1"/>
<circle cx="432.0" cy="329.1" r="4.4" fill="#3e7cb1"/>
<circle cx="433.8" cy="323.2" r="4.4" fill="#3e7cb1"/>
<circle cx="435.5" cy="326.9" r="4.4" fill="#3e7cb1"/>
<circle cx="437.3" cy="325.8" r="4.4" fill="#3e7cb1"/>
<circle cx="439.0" cy="325.2" r="4.4" fill="#3e7cb1"/>
<circle cx="440.8" cy="325.2" r="4.4" fill="#3e7cb1"/>
<circle cx="442.6" cy="331.9" r="4.4" fill="#3e7cb1"/>
<circle cx="444.3" cy="328.7" r="4.4" fill="#3e7cb1"/>
<circle cx="446.1" cy="331.2" r="4.4" fill="#3e7cb1"/>
<circle cx="447.8" cy="323.3" r="4.4" fill="#3e7cb1"/>
<circle cx="449.6" cy="327.9" r="4.4" fill="#3e7cb1"/>
<circle cx="451.3" cy="324.5" r="4.4" fill="#3e7cb1"/>
<circle cx="453.1" cy="322.8" r="4.4" fill="#3e7cb1"/>
<circle cx="454.8" cy="325.0" r="4.4" fill="#3e7cb1"/>
<circle cx="456.6" cy="330.0" r="4.4" fill="#3e7cb1"/>
<circle cx="458.3" cy="328.6" r="4.4" fill="#3e7cb1"/>
<circle cx="460.1" cy="325.8" r="4.4" fill="#3e7cb1"/>
<circle cx="461.9" cy="332.5" r="4.4" fill="#3e7cb1"/>
<circle cx="463.6" cy="330.7" r="4.4" fill="#3e7cb1"/>
<circle cx="465.4" cy="323.6" r="4.4" fill="#3e7cb1"/>
<circle cx="467.1" cy="324.2" r="4.4" fill="#3e7cb1"/>
<circle cx="468.9" cy="329.4" r="4.4" fill="#3e7cb1"/>
<circle cx="470.6" cy="320.5" r="4.4" fill="#3e7cb1"/>
<circle cx="472.4" cy="323.8" r="4.4" fill="#3e7cb1"/>
<circle cx="474.1" cy="329.2" r="4.4" fill="#3e7cb1"/>
<circle cx="475.9" cy="324.7" r="4.4" fill="#3e7cb1"/>
<circle cx="477.7" cy="320.9" r="4.4" fill="#3e7cb1"/>
<circle cx="479.4" cy="326.6" r="4.4" fill="#3e7cb1"/>
<circle cx="481.2" cy="321.2" r="4.4" fill="#3e7cb1"/>
<circle cx="482.9" cy="319.6" r="4.4" fill="#3e7cb1"/>
<circle cx="484.7" cy="324.2" r="4.4" fill="#3e7cb1"/>
<circle cx="486.4" cy="324.2" r="4.4" fill="#3e7cb1"/>
<circle cx="488.2" cy="316.4" r="4.4" fill="#3e7cb1"/>
<circle cx="489.9" cy="322.9" r="4.4" fill="#3e7cb1"/>
<circle cx="491.7" cy="322.9" r="4.4" fill="#3e7cb1"/>
<circle cx="493.4" cy="325.3" r="4.4" fill="#3e7cb1"/>
<circle cx="495.2" cy="326.8" r="4.4" fill="#3e7cb1"/>
<circle cx="497.0" cy="316.8" r="4.4" fill="#3e7cb1"/>
<circle cx="498.7" cy="324.1" r="4.4" fill="#3e7cb1"/>
<circle cx="500.5" cy="326.2" r="4.4" fill="#3e7cb1"/>
<circle cx="502.2" cy="326.6" r="4.4" fill="#3e7cb1"/>
<circle cx="504.0" cy="323.0" r="4.4" fill="#3e7cb1"/>
<circle cx="505.7" cy="323.2" r="4.4" fill="#3e7cb1"/>
<circle cx="507.5" cy="326.5" r="4.4" fill="#3e7cb1"/>
<circle cx="509.2" cy="324.0" r="4.4" fill="#3e7cb1"/>
<circle cx="511.0" cy="317.8" r="4.4" fill="#3e7cb1"/>
<circle cx="512.8" cy="324.0" r="4.4" fill="#3e7cb1"/>
<circle cx="514.5" cy="324.4" r="4.4" fill="#3e7cb1"/>
<circle cx="516.3" cy="322.0" r="4.4" fill="#3e7cb1"/>
<circle cx="518.0" cy="329.0" r="4.4" fill="#3e7cb1"/>
<circle cx="519.8" cy="328.6" r="4.4" fill="#3e7cb1"/>
<circle cx="521.5" cy="320.3" r="4.4" fill="#3e7cb1"/>
<circle cx="523.3" cy="323.4" r="4.4" fill="#3e7cb1"/>
<circle cx="525.0" cy="325.9" r="4.4" fill="#3e7cb1"/>
<circle cx="526.8" cy="325.7" r="4.4" fill="#3e7cb1"/>
<circle cx="528.6" cy="320.1" r="4.4" fill="#3e7cb1"/>
<circle cx="530.3" cy="329.4" r="4.4" fill="#3e7cb1"/>
<circle cx="532.1" cy="320.5" r="4.4" fill="#3e7cb1"/>
<circle cx="533.8" cy="320.7" r="4.4" fill="#3e7cb1"/>
<circle cx="535.6" cy="325.0" r="4.4" fill="#3e7cb1"/>
<circle cx="537.3" cy="322.0" r="4.4" fill="#3e7cb1"/>
<circle cx="539.1" cy="323.7" r="4.4" fill="#3e7cb1"/>
<circle cx="540.8" cy="323.2" r="4.4" fill="#3e7cb1"/>
<circle cx="542.6" cy="320.7" r="4.4" fill="#3e7cb1"/>
<circle cx="544.3" cy="319.5" r="4.4" fill="#3e7cb1"/>
<circle cx="546.1" cy="320.1" r="4.4" fill="#3e7cb1"/>
<circle cx="547.9" cy="328.9" r="4.4" fill="#3e7cb1"/>
<circle cx="549.6" cy="326.3" r="4.4" fill="#3e7cb1"/>
<circle cx="551.4" cy="326.7" r="4.4" fill="#3e7cb1"/>
<circle cx="553.1" cy="324.4" r="4.4" fill="#3e7cb1"/>
<circle cx="554.9" cy="324.6" r="4.4" fill="#3e7cb1"/>
<circle cx="556.6" cy="327.9" r="4.4" fill="#3e7cb1"/>
<circle cx="558.4" cy="321.4" r="4.4" fill="#3e7cb1"/>
<circle cx="560.1" cy="319.7" r="4.4" fill="#3e7cb1"/>
<circle cx="561.9" cy="325.9" r="4.4" fill="#3e7cb1"/>
<circle cx="563.7" cy="321.6" r="4.4" fill="#3e7cb1"/>
<circle cx="565.4" cy="320.8" r="4.4" fill="#3e7cb1"/>
<circle cx="567.2" cy="327.2" r="4.4" fill="#3e7cb1"/>
<circle cx="568.9" cy="320.7" r="4.4" fill="#3e7cb1"/>
<circle cx="570.7" cy="314.3" r="4.4" fill="#3e7cb1"/>
<circle cx="572.4" cy="322.2" r="4.4" fill="#3e7cb1"/>
<circle cx="574.2" cy="323.1" r="4.4" fill="#3e7cb1"/>
<circle cx="575.9" cy="321.6" r="4.4" fill="#3e7cb1"/>
<circle cx="577.7" cy="325.4" r="4.4" fill="#3e7cb1"/>
<circle cx="579.4" cy="325.7" r="4.4" fill="#3e7cb1"/>
<circle cx="581.2" cy="328.1" r="4.4" fill="#3e7cb1"/>
<circle cx="583.0" cy="329.8" r="4.4" fill="#3e7cb1"/>
<circle cx="584.7" cy="321.1" r="4.4" fill="#3e7cb1"/>
<circle cx="586.5" cy="318.5" r="4.4" fill="#3e7cb1"/>
<circle cx="588.2" cy="316.8" r="4.4" fill="#3e7cb1"/>
<circle cx="590.0" cy="324.0" r="4.4" fill="#3e7cb1"/>
<circle cx="591.7" cy="316.2" r="4.4" fill="#3e7cb1"/>
<circle cx="593.5" cy="315.9" r="4.4" fill="#3e7cb1"/>
<circle cx="595.2" cy="322.0" r="4.4" fill="#3e7cb1"/>
<circle cx="597.0" cy="318.4" r="4.4" fill="#3e7cb1"/>
<circle cx="598.8" cy="322.0" r="4.4" fill="#3e7cb1"/>
<circle cx="600.5" cy="324.3" r="4.4" fill="#3e7cb1"/>
<circle cx="602.3" cy="322.8" r="4.4" fill="#3e7cb1"/>
<circle cx="604.0" cy="321.0" r="4.4" fill="#3e7cb1"/>
<circle cx="605.8" cy="319.7" r="4.4" fill="#3e7cb1"/>
<circle cx="607.5" cy="322.9" r="4.4" fill="#3e7cb1"/>
<circle cx="609.3" cy="322.4" r="4.4" fill="#3e7cb1"/>
<circle cx="611.0" cy="327.2" r="4.4" fill="#3e7cb1"/>
<circle cx="612.8" cy="323.5" r="4.4" fill="#3e7cb1"/>
<circle cx="614.5" cy="322.7" r="4.4" fill="#3e7cb1"/>
<circle cx="616.3" cy="315.4" r="4.4" fill="#3e7cb1"/>
<circle cx="618.1" cy="317.3" r="4.4" fill="#3e7cb1"/>
<circle cx="619.8" cy="318.1" r="4.4" fill="#3e7cb1"/>
<circle cx="621.6" cy="324.6" r="4.4" fill="#3e7cb1"/>
<circle cx="623.3" cy="324.0" r="4.4" fill="#3e7cb1"/>
<circle cx="625.1" cy="324.8" r="4.4" fill="#3e7cb1"/>
<circle cx="626.8" cy="318.9" r="4.4" fill="#3e7cb1"/>
<circle cx="628.6" cy="317.9" r="4.4" fill="#3e7cb1"/>
<circle cx="630.3" cy="317.2" r="4.4" fill="#3e7cb1"/>
<circle cx="632.1" cy="319.4" r="4.4" fill="#3e7cb1"/>
<circle cx="633.9" cy="323.5" r="4.4" fill="#3e7cb1"/>
<circle cx="635.6" cy="318.7" r="4.4" fill="#3e7cb1"/>
<circle cx="637.4" cy="319.1" r="4.4" fill="#3e7cb1"/>
<circle cx="639.1" cy="321.0" r="4.4" fill="#3e7cb1"/>
<circle cx="640.9" cy="319.4" r="4.4" fill="#3e7cb1"/>
<circle cx="642.6" cy="321.6" r="4.4" fill="#3e7cb1"/>
<circle cx="644.4" cy="323.2" r="4.4" fill="#3e7cb1"/>
<circle cx="646.1" cy="318.6" r="4.4" fill="#3e7cb1"/>
<circle cx="647.9" cy="323.4" r="4.4" fill="#3e7cb1"/>
<circle cx="649.6" cy="319.2" r="4.4" fill="#3e7cb1"/>
<circle cx="651.4" cy="320.8" r="4.4" fill="#3e7cb1"/>
<circle cx="653.2" cy="319.8" r="4.4" fill="#3e7cb1"/>
<circle cx="654.9" cy="322.3" r="4.4" fill="#3e7cb1"/>
<circle cx="656.7" cy="315.6" r="4.4" fill="#3e7cb1"/>
<circle cx="658.4" cy="322.2" r="4.4" fill="#3e7cb1"/>
<circle cx="660.2" cy="322.3" r="4.4" fill="#3e7cb1"/>
<circle cx="661.9" cy="317.1" r="4.4" fill="#3e7cb1"/>
<circle cx="663.7" cy="314.0" r="4.4" fill="#3e7cb1"/>
<circle cx="665.4" cy="317.0" r="4.4" fill="#3e7cb1"/>
<circle cx="667.2" cy="317.0" r="4.4" fill="#3e7cb1"/>
<circle cx="669.0" cy="326.2" r="4.4" fill="#3e7cb1"/>
<circle cx="670.7" cy="318.0" r="4.4" fill="#3e7cb1"/>
<circle cx="672.5" cy="323.1" r="4.4" fill="#3e7cb1"/>
<circle cx="674.2" cy="314.9" r="4.4" fill="#3e7cb1"/>
<circle cx="676.0" cy="319.8" r="4.4" fill="#3e7cb1"/>
<circle cx="677.7" cy="311.1" r="4.4" fill="#3e7cb1"/>
<circle cx="679.5" cy="321.4" r="4.4" fill="#3e7cb1"/>
<circle cx="681.2" cy="321.1" r="4.4" fill="#3e7cb1"/>
<circle cx="683.0" cy="318.6" r="4.4" fill="#3e7cb1"/>
<circle cx="684.7" cy="325.6" r="4.4" fill="#3e7cb1"/>
<circle cx="686.5" cy="320.6" r="4.4" fill="#3e7cb1"/>
<circle cx="688.3" cy="322.4" r="4.4" fill="#3e7cb1"/>
<circle cx="690.0" cy="317.7" r="4.4" fill="#3e7cb1"/>
<circle cx="691.8" cy="321.9" r="4.4" fill="#3e7cb1"/>
<circle cx="693.5" cy="318.0" r="4.4" fill="#3e7cb1"/>
<circle cx="695.3" cy="322.9" r="4.4" fill="#3e7cb1"/>
<circle cx="697.0" cy="322.8" r="4.4" fill="#3e7cb1"/>
<circle cx="698.8" cy="316.3" r="4.4" fill="#3e7cb1"/>
<circle cx="700.5" cy="319.8" r="4.4" fill="#3e7cb1"/>
<circle cx="702.3" cy="320.5" r="4.4" fill="#3e7cb1"/>
<circle cx="704.1" cy="315.3" r="4.4" fill="#3e7cb1"/>
<circle cx="705.8" cy="312.2" r="4.4" fill="#3e7cb1"/>
<circle cx="707.6" cy="317.8" r="4.4" fill="#3e7cb1"/>
<circle cx="709.3" cy="319.5" r="4.4" fill="#3e7cb1"/>
<circle cx="711.1" cy="322.4" r="4.4" fill="#3e7cb1"/>
<circle cx="712.8" cy="319.2" r="4.4" fill="#3e7cb1"/>
<circle cx="714.6" cy="325.5" r="4.4" fill="#3e7cb1"/>
<circle cx="716.3" cy="321.8" r="4.4" fill="#3e7cb1"/>
<circle cx="718.1" cy="314.3" r="4.4" fill="#3e7cb1"/>
<circle cx="719.8" cy="318.8" r="4.4" fill="#3e7cb1"/>
<circle cx="721.6" cy="319.2" r="4.4" fill="#3e7cb1"/>
<circle cx="723.4" cy="317.6" r="4.4" fill="#3e7cb1"/>
<circle cx="725.1" cy="310.6" r="4.4" fill="#3e7cb1"/>
<circle cx="726.9" cy="316.8" r="4.4" fill="#3e7cb1"/>
<circle cx="728.6" cy="314.0" r="4.4" fill="#3e7cb1"/>
<circle cx="730.4" cy="319.8" r="4.4" fill="#3e7cb1"/>
<circle cx="732.1" cy="324.3" r="4.4" fill="#3e7cb1"/>
<circle cx="733.9" cy="318.1" r="4.4" fill="#3e7cb1"/>
<circle cx="735.6" cy="318.6" r="4.4" fill="#3e7cb1"/>
<circle cx="737.4" cy="313.0" r="4.4" fill="#3e7cb1"/>
<circle cx="739.2" cy="317.0" r="4.4" fill="#3e7cb1"/>
<circle cx="740.9" cy="317.9" r="4.4" fill="#3e7cb1"/>
<circle cx="742.7" cy="317.7" r="4.4" fill="#3e7cb1"/>
<circle cx="744.4" cy="314.0" r="4.4" fill="#3e7cb1"/>
<circle cx="746.2" cy="322.7" r="4.4" fill="#3e7cb1"/>
<circle cx="747.9" cy="323.8" r="4.4" fill="#3e7cb1"/>
<circle cx="749.7" cy="319.9" r="4.4" fill="#3e7cb1"/>
<circle cx="751.4" cy="318.1" r="4.4" fill="#3e7cb1"/>
<circle cx="753.2" cy="313.3" r="4.4" fill="#3e7cb1"/>
<circle cx="754.9" cy="311.7" r="4.4" fill="#3e7cb1"/>
<circle cx="756.7" cy="322.9" r="4.4" fill="#3e7cb1"/>
<circle cx="758.5" cy="323.0" r="4.4" fill="#3e7cb1"/>
<circle cx="760.2" cy="318.3" r="4.4" fill="#3e7cb1"/>
<circle cx="762.0" cy="320.5" r="4.4" fill="#3e7cb1"/>
<circle cx="763.7" cy="310.1" r="4.4" fill="#3e7cb1"/>
<circle cx="765.5" cy="322.3" r="4.4" fill="#3e7cb1"/>
<circle cx="767.2" cy="320.6" r="4.4" fill="#3e7cb1"/>
<circle cx="769.0" cy="320.8" r="4.4" fill="#3e7cb1"/>
<circle cx="770.7" cy="318.3" r="4.4" fill="#3e7cb1"/>
<circle cx="772.5" cy="311.2" r="4.4" fill="#3e7cb1"/>
<circle cx="774.3" cy="321.5" r="4.4" fill="#3e7cb1"/>
<circle cx="776.0" cy="318.8" r="4.4" fill="#3e7cb1"/>
<circle cx="777.8" cy="316.8" r="4.4" fill="#3e7cb1"/>
<circle cx="779.5" cy="320.4" r="4.4" fill="#3e7cb1"/>
<circle cx="781.3" cy="312.7" r="4.4" fill="#3e7cb1"/>
<circle cx="783.0" cy="320.2" r="4.4" fill="#3e7cb1"/>
<circle cx="784.8" cy="319.0" r="4.4" fill="#3e7cb1"/>
<circle cx="786.5" cy="312.6" r="4.4" fill="#3e7cb1"/>
<circle cx="788.3" cy="309.8" r="4.4" fill="#3e7cb1"/>
<circle cx="790.0" cy="314.9" r="4.4" fill="#3e7cb1"/>
<circle cx="791.8" cy="315.1" r="4.4" fill="#3e7cb1"/>
<circle cx="793.6" cy="313.7" r="4.4" fill="#3e7cb1"/>
<circle cx="795.3" cy="311.0" r="4.4" fill="#3e7cb1"/>
<circle cx="797.1" cy="314.4" r="4.4" fill="#3e7cb1"/>
<circle cx="798.8" cy="312.5" r="4.4" fill="#3e7cb1"/>
<circle cx="800.6" cy="319.9" r="4.4" fill="#3e7cb1"/>
<circle cx="802.3" cy="310.3" r="4.4" fill="#3e7cb1"/>
<circle cx="804.1" cy="319.0" r="4.4" fill="#3e7cb1"/>
<circle cx="805.8" cy="311.7" r="4.4" fill="#3e7cb1"/>
<circle cx="807.6" cy="311.9" r="4.4" fill="#3e7cb1"/>
<circle cx="809.4" cy="313.5" r="4.4" fill="#3e7cb1"/>
<circle cx="811.1" cy="315.8" r="4.4" fill="#3e7cb1"/>
<circle cx="812.9" cy="310.4" r="4.4" fill="#3e7cb1"/>
<circle cx="814.6" cy="308.2" r="4.4" fill="#3e7cb1"/>
<circle cx="816.4" cy="317.4" r="4.4" fill="#3e7cb1"/>
<circle cx="818.1" cy="307.5" r="4.4" fill="#3e7cb1"/>
<circle cx="819.9" cy="322.1" r="4.4" fill="#3e7cb1"/>
<circle cx="821.6" cy="312.3" r="4.4" fill="#3e7cb1"/>
<circle cx="823.4" cy="309.6" r="4.4" fill="#3e7cb1"/>
<circle cx="825.1" cy="310.8" r="4.4" fill="#3e7cb1"/>
<circle cx="826.9" cy="314.0" r="4.4" fill="#3e7cb1"/>
<circle cx="828.7" cy="315.0" r="4.4" fill="#3e7cb1"/>
<circle cx="830.4" cy="318.1" r="4.4" fill="#3e7cb1"/>
<circle cx="832.2" cy="312.5" r="4.4" fill="#3e7cb1"/>
<circle cx="833.9" cy="313.8" r="4.4" fill="#3e7cb1"/>
<circle cx="835.7" cy="315.2" r="4.4" fill="#3e7cb1"/>
<circle cx="837.4" cy="315.1" r="4.4" fill="#3e7cb1"/>
<circle cx="839.2" cy="308.1" r="4.4" fill="#3e7cb1"/>
<circle cx="840.9" cy="308.3" r="4.4" fill="#3e7cb1"/>
<circle cx="842.7" cy="320.2" r="4.4" fill="#3e7cb1"/>
<circle cx="844.5" cy="312.3" r="4.4" fill="#3e7cb1"/>
<circle cx="846.2" cy="307.7" r="4.4" fill="#3e7cb1"/>
<circle cx="848.0" cy="312.2" r="4.4" fill="#3e7cb1"/>
<circle cx="849.7" cy="313.8" r="4.4" fill="#3e7cb1"/>
<circle cx="851.5" cy="319.4" r="4.4" fill="#3e7cb1"/>
<circle cx="853.2" cy="312.2" r="4.4" fill="#3e7cb1"/>
<circle cx="855.0" cy="311.6" r="4.4" fill="#3e7cb1"/>
<circle cx="856.7" cy="312.6" r="4.4" fill="#3e7cb1"/>
<circle cx="858.5" cy="314.2" r="4.4" fill="#3e7cb1"/>
<circle cx="860.2" cy="316.9" r="4.4" fill="#3e7cb1"/>
<circle cx="862.0" cy="320.2" r="4.4" fill="#3e7cb1"/>
<circle cx="863.8" cy="307.9" r="4.4" fill="#3e7cb1"/>
<circle cx="865.5" cy="318.1" r="4.4" fill="#3e7cb1"/>
<circle cx="867.3" cy="310.0" r="4.4" fill="#3e7cb1"/>
<circle cx="869.0" cy="311.8" r="4.4" fill="#3e7cb1"/>
<circle cx="870.8" cy="314.0" r="4.4" fill="#3e7cb1"/>
<circle cx="872.5" cy="305.2" r="4.4" fill="#3e7cb1"/>
<circle cx="874.3" cy="315.9" r="4.4" fill="#3e7cb1"/>
<circle cx="876.0" cy="309.1" r="4.4" fill="#3e7cb1"/>
<circle cx="877.8" cy="318.7" r="4.4" fill="#3e7cb1"/>
<circle cx="879.6" cy="310.8" r="4.4" fill="#3e7cb1"/>
<circle cx="881.3" cy="308.0" r="4.4" fill="#3e7cb1"/>
<circle cx="883.1" cy="313.6" r="4.4" fill="#3e7cb1"/>
<circle cx="884.8" cy="312.9" r="4.4" fill="#3e7cb1"/>
<circle cx="886.6" cy="312.8" r="4.4" fill="#3e7cb1"/>
<circle cx="888.3" cy="315.9" r="4.4" fill="#3e7cb1"/>
<circle cx="890.1" cy="316.8" r="4.4" fill="#3e7cb1"/>
<circle cx="891.8" cy="318.5" r="4.4" fill="#3e7cb1"/>
<circle cx="893.6" cy="307.4" r="4.4" fill="#3e7cb1"/>
<circle cx="895.3" cy="312.4" r="4.4" fill="#3e7cb1"/>
<circle cx="897.1" cy="310.6" r="4.4" fill="#3e7cb1"/>
<circle cx="898.9" cy="320.0" r="4.4" fill="#3e7cb1"/>
<circle cx="900.6" cy="317.4" r="4.4" fill="#3e7cb1"/>
<circle cx="902.4" cy="315.3" r="4.4" fill="#3e7cb1"/>
<circle cx="904.1" cy="313.1" r="4.4" fill="#3e7cb1"/>
<circle cx="905.9" cy="312.8" r="4.4" fill="#3e7cb1"/>
<circle cx="907.6" cy="317.5" r="4.4" fill="#3e7cb1"/>
<circle cx="909.4" cy="306.5" r="4.4" fill="#3e7cb1"/>
<circle cx="911.1" cy="312.1" r="4.4" fill="#3e7cb1"/>
<circle cx="912.9" cy="311.4" r="4.4" fill="#3e7cb1"/>
<circle cx="914.7" cy="310.2" r="4.4" fill="#3e7cb1"/>
<circle cx="916.4" cy="316.3" r="4.4" fill="#3e7cb1"/>
<circle cx="918.2" cy="316.8" r="4.4" fill="#3e7cb1"/>
<circle cx="919.9" cy="315.4" r="4.4" fill="#3e7cb1"/>
<circle cx="921.7" cy="309.6" r="4.4" fill="#3e7cb1"/>
<circle cx="923.4" cy="313.1" r="4.4" fill="#3e7cb1"/>
<circle cx="925.2" cy="313.4" r="4.4" fill="#3e7cb1"/>
<circle cx="926.9" cy="310.9" r="4.4" fill="#3e7cb1"/>
<circle cx="928.7" cy="313.5" r="4.4" fill="#3e7cb1"/>
<circle cx="930.4" cy="312.9" r="4.4" fill="#3e7cb1"/>
<circle cx="932.2" cy="320.3" r="4.4" fill="#3e7cb1"/>
<circle cx="934.0" cy="311.2" r="4.4" fill="#3e7cb1"/>
<circle cx="935.7" cy="313.8" r="4.4" fill="#3e7cb1"/>
<circle cx="937.5" cy="317.0" r="4.4" fill="#3e7cb1"/>
<circle cx="939.2" cy="312.2" r="4.4" fill="#3e7cb1"/>
<circle cx="941.0" cy="315.4" r="4.4" fill="#3e7cb1"/>
<circle cx="942.7" cy="308.6" r="4.4" fill="#3e7cb1"/>
<circle cx="944.5" cy="308.7" r="4.4" fill="#3e7cb1"/>
<circle cx="946.2" cy="317.5" r="4.4" fill="#3e7cb1"/>
<circle cx="948.0" cy="310.7" r="4.4" fill="#3e7cb1"/>
<circle cx="252" cy="399" r="5" fill="#3e7cb1"/>
<text x="266" y="404" fill="#cbd5e1" font-size="14">valid/loss_total</text>
</svg>