<svg xmlns="http://www.w3.org/2000/svg" width="960" height="420" viewBox="0 0 960 420">
<rect width="100%" height="100%" rx="24" fill="#0f172a"/>
<text x="80" y="34" fill="#e2e8f0" font-size="24" font-weight="700">训练损失走势</text>
<line x1="80" y1="320" x2="880" y2="320" stroke="#475569" stroke-width="2"/>
<line x1="80" y1="60" x2="80" y2="320" stroke="#475569" stroke-width="2"/>
<polyline points="80.0,199.5 88.1,274.4 96.2,280.8 104.2,285.8 112.3,290.1 120.4,294.9 128.5,299.8 136.6,302.8 144.6,305.6 152.7,307.4 160.8,308.7 168.9,310.1 177.0,310.8 185.1,311.9 193.1,312.9 201.2,313.5 209.3,313.7 217.4,314.4 225.5,314.7 233.5,315.0 241.6,315.5 249.7,315.7 257.8,315.8 265.9,316.2 273.9,316.3 282.0,316.5 290.1,316.7 298.2,317.1 306.3,317.0 314.3,317.3 322.4,317.3 330.5,317.3 338.6,317.5 346.7,317.6 354.7,317.7 362.8,318.0 370.9,318.0 379.0,318.0 387.1,318.1 395.2,318.2 403.2,318.2 411.3,318.3 419.4,318.3 427.5,318.3 435.6,318.3 443.6,318.6 451.7,318.6 459.8,318.7 467.9,318.8 476.0,318.8 484.0,318.9 492.1,318.9 500.2,318.8 508.3,318.8 516.4,319.0 524.4,319.0 532.5,319.1 540.6,319.0 548.7,319.2 556.8,319.1 564.8,319.1 572.9,319.2 581.0,319.4 589.1,319.3 597.2,319.3 605.3,319.4 613.3,319.4 621.4,319.5 629.5,319.6 637.6,319.4 645.7,319.5 653.7,319.5 661.8,319.6 669.9,319.7 678.0,319.6 686.1,319.7 694.1,319.6 702.2,319.7 710.3,319.7 718.4,319.8 726.5,319.8 734.5,319.8 742.6,319.7 750.7,319.9 758.8,319.9 766.9,319.8 774.9,319.8 783.0,320.0 791.1,319.8 799.2,320.0 807.3,319.8 815.4,319.9 823.4,319.9 831.5,319.9 839.6,320.0 847.7,319.9 855.8,319.9 863.8,320.0 871.9,320.0 880.0,319.9" fill="none" stroke="#38bdf8" stroke-width="3" stroke-linecap="round" stroke-linejoin="round"/>
<circle cx="80.0" cy="199.5" r="3.5" fill="#38bdf8"/>
<circle cx="88.1" cy="274.4" r="3.5" fill="#38bdf8"/>
<circle cx="96.2" cy="280.8" r="3.5" fill="#38bdf8"/>
<circle cx="104.2" cy="285.8" r="3.5" fill="#38bdf8"/>
<circle cx="112.3" cy="290.1" r="3.5" fill="#38bdf8"/>
<circle cx="120.4" cy="294.9" r="3.5" fill="#38bdf8"/>
<circle cx="128.5" cy="299.8" r="3.5" fill="#38bdf8"/>
<circle cx="136.6" cy="302.8" r="3.5" fill="#38bdf8"/>
<circle cx="144.6" cy="305.6" r="3.5" fill="#38bdf8"/>
<circle cx="152.7" cy="307.4" r="3.5" fill="#38bdf8"/>
<circle cx="160.8" cy="308.7" r="3.5" fill="#38bdf8"/>
<circle cx="168.9" cy="310.1" r="3.5" fill="#38bdf8"/>
<circle cx="177.0" cy="310.8" r="3.5" fill="#38bdf8"/>
<circle cx="185.1" cy="311.9" r="3.5" fill="#38bdf8"/>
<circle cx="193.1" cy="312.9" r="3.5" fill="#38bdf8"/>
<circle cx="201.2" cy="313.5" r="3.5" fill="#38bdf8"/>
<circle cx="209.3" cy="313.7" r="3.5" fill="#38bdf8"/>
<circle cx="217.4" cy="314.4" r="3.5" fill="#38bdf8"/>
<circle cx="225.5" cy="314.7" r="3.5" fill="#38bdf8"/>
<circle cx="233.5" cy="315.0" r="3.5" fill="#38bdf8"/>
<circle cx="241.6" cy="315.5" r="3.5" fill="#38bdf8"/>
<circle cx="249.7" cy="315.7" r="3.5" fill="#38bdf8"/>
<circle cx="257.8" cy="315.8" r="3.5" fill="#38bdf8"/>
<circle cx="265.9" cy="316.2" r="3.5" fill="#38bdf8"/>
<circle cx="273.9" cy="316.3" r="3.5" fill="#38bdf8"/>
<circle cx="282.0" cy="316.5" r="3.5" fill="#38bdf8"/>
<circle cx="290.1" cy="316.7" r="3.5" fill="#38bdf8"/>
<circle cx="298.2" cy="317.1" r="3.5" fill="#38bdf8"/>
<circle cx="306.3" cy="317.0" r="3.5" fill="#38bdf8"/>
<circle cx="314.3" cy="317.3" r="3.5" fill="#38bdf8"/>
<circle cx="322.4" cy="317.3" r="3.5" fill="#38bdf8"/>
<circle cx="330.5" cy="317.3" r="3.5" fill="#38bdf8"/>
<circle cx="338.6" cy="317.5" r="3.5" fill="#38bdf8"/>
<circle cx="346.7" cy="317.6" r="3.5" fill="#38bdf8"/>
<circle cx="354.7" cy="317.7" r="3.5" fill="#38bdf8"/>
<circle cx="362.8" cy="318.0" r="3.5" fill="#38bdf8"/>
<circle cx="370.9" cy="318.0" r="3.5" fill="#38bdf8"/>
<circle cx="379.0" cy="318.0" r="3.5" fill="#38bdf8"/>
<circle cx="387.1" cy="318.1" r="3.5" fill="#38bdf8"/>
<circle cx="395.2" cy="318.2" r="3.5" fill="#38bdf8"/>
<circle cx="403.2" cy="318.2" r="3.5" fill="#38bdf8"/>
<circle cx="411.3" cy="318.3" r="3.5" fill="#38bdf8"/>
<circle cx="419.4" cy="318.3" r="3.5" fill="#38bdf8"/>
<circle cx="427.5" cy="318.3" r="3.5" fill="#38bdf8"/>
<circle cx="435.6" cy="318.3" r="3.5" fill="#38bdf8"/>
<circle cx="443.6" cy="318.6" r="3.5" fill="#38bdf8"/>
<circle cx="451.7" cy="318.6" r="3.5" fill="#38bdf8"/>
<circle cx="459.8" cy="318.7" r="3.5" fill="#38bdf8"/>
<circle cx="467.9" cy="318.8" r="3.5" fill="#38bdf8"/>
<circle cx="476.0" cy="318.8" r="3.5" fill="#38bdf8"/>
<circle cx="484.0" cy="318.9" r="3.5" fill="#38bdf8"/>
<circle cx="492.1" cy="318.9" r="3.5" fill="#38bdf8"/>
<circle cx="500.2" cy="318.8" r="3.5" fill="#38bdf8"/>
<circle cx="508.3" cy="318.8" r="3.5" fill="#38bdf8"/>
<circle cx="516.4" cy="319.0" r="3.5" fill="#38bdf8"/>
<circle cx="524.4" cy="319.0" r="3.5" fill="#38bdf8"/>
<circle cx="532.5" cy="319.1" r="3.5" fill="#38bdf8"/>
<circle cx="540.6" cy="319.0" r="3.5" fill="#38bdf8"/>
<circle cx="548.7" cy="319.2" r="3.5" fill="#38bdf8"/>
<circle cx="556.8" cy="319.1" r="3.5" fill="#38bdf8"/>
<circle cx="564.8" cy="319.1" r="3.5" fill="#38bdf8"/>
<circle cx="572.9" cy="319.2" r="3.5" fill="#38bdf8"/>
<circle cx="581.0" cy="319.4" r="3.5" fill="#38bdf8"/>
<circle cx="589.1" cy="319.3" r="3.5" fill="#38bdf8"/>
<circle cx="597.2" cy="319.3" r="3.5" fill="#38bdf8"/>
<circle cx="605.3" cy="319.4" r="3.5" fill="#38bdf8"/>
<circle cx="613.3" cy="319.4" r="3.5" fill="#38bdf8"/>
<circle cx="621.4" cy="319.5" r="3.5" fill="#38bdf8"/>
<circle cx="629.5" cy="319.6" r="3.5" fill="#38bdf8"/>
<circle cx="637.6" cy="319.4" r="3.5" fill="#38bdf8"/>
<circle cx="645.7" cy="319.5" r="3.5" fill="#38bdf8"/>
<circle cx="653.7" cy="319.5" r="3.5" fill="#38bdf8"/>
<circle cx="661.8" cy="319.6" r="3.5" fill="#38bdf8"/>
<circle cx="669.9" cy="319.7" r="3.5" fill="#38bdf8"/>
<circle cx="678.0" cy="319.6" r="3.5" fill="#38bdf8"/>
<circle cx="686.1" cy="319.7" r="3.5" fill="#38bdf8"/>
<circle cx="694.1" cy="319.6" r="3.5" fill="#38bdf8"/>
<circle cx="702.2" cy="319.7" r="3.5" fill="#38bdf8"/>
<circle cx="710.3" cy="319.7" r="3.5" fill="#38bdf8"/>
<circle cx="718.4" cy="319.8" r="3.5" fill="#38bdf8"/>
<circle cx="726.5" cy="319.8" r="3.5" fill="#38bdf8"/>
<circle cx="734.5" cy="319.8" r="3.5" fill="#38bdf8"/>
<circle cx="742.6" cy="319.7" r="3.5" fill="#38bdf8"/>
<circle cx="750.7" cy="319.9" r="3.5" fill="#38bdf8"/>
<circle cx="758.8" cy="319.9" r="3.5" fill="#38bdf8"/>
<circle cx="766.9" cy="319.8" r="3.5" fill="#38bdf8"/>
<circle cx="774.9" cy="319.8" r="3.5" fill="#38bdf8"/>
<circle cx="783.0" cy="320.0" r="3.5" fill="#38bdf8"/>
<circle cx="791.1" cy="319.8" r="3.5" fill="#38bdf8"/>
<circle cx="799.2" cy="320.0" r="3.5" fill="#38bdf8"/>
<circle cx="807.3" cy="319.8" r="3.5" fill="#38bdf8"/>
<circle cx="815.4" cy="319.9" r="3.5" fill="#38bdf8"/>
<circle cx="823.4" cy="319.9" r="3.5" fill="#38bdf8"/>
<circle cx="831.5" cy="319.9" r="3.5" fill="#38bdf8"/>
<circle cx="839.6" cy="320.0" r="3.5" fill="#38bdf8"/>
<circle cx="847.7" cy="319.9" r="3.5" fill="#38bdf8"/>
<circle cx="855.8" cy="319.9" r="3.5" fill="#38bdf8"/>
<circle cx="863.8" cy="320.0" r="3.5" fill="#38bdf8"/>
<circle cx="871.9" cy="320.0" r="3.5" fill="#38bdf8"/>
<circle cx="880.0" cy="319.9" r="3.5" fill="#38bdf8"/>
<circle cx="88" cy="351" r="5" fill="#38bdf8"/>
<text x="102" y="356" fill="#cbd5e1" font-size="14">train loss</text>
<polyline points="80.0,60.0 88.1,83.7 96.2,108.5 104.2,129.6 112.3,152.8 120.4,172.0 128.5,192.0 136.6,210.1 144.6,226.8 152.7,240.8 160.8,251.8 168.9,262.1 177.0,269.4 185.1,274.0 193.1,277.0 201.2,279.5 209.3,280.7 217.4,282.6 225.5,282.1 233.5,283.0 241.6,283.6 249.7,285.0 257.8,285.9 265.9,287.5 273.9,288.4 282.0,288.3 290.1,288.7 298.2,292.6 306.3,291.4 314.3,289.6 322.4,292.9 330.5,292.1 338.6,291.8 346.7,291.3 354.7,291.0 362.8,293.1 370.9,294.0 379.0,294.4 387.1,293.6 395.2,292.9 403.2,294.8 411.3,293.0 419.4,295.1 427.5,296.3 435.6,294.2 443.6,293.0 451.7,296.7 459.8,295.3 467.9,297.9 476.0,295.5 484.0,293.2 492.1,293.8 500.2,295.2 508.3,295.1 516.4,295.7 524.4,296.7 532.5,296.9 540.6,295.0 548.7,295.3 556.8,295.7 564.8,293.1 572.9,293.9 581.0,295.2 589.1,293.2 597.2,292.6 605.3,294.9 613.3,295.6 621.4,293.2 629.5,290.8 637.6,291.3 645.7,291.4 653.7,288.7 661.8,290.8 669.9,290.9 678.0,290.9 686.1,290.6 694.1,286.5 702.2,291.6 710.3,291.8 718.4,288.0 726.5,289.5 734.5,286.2 742.6,285.5 750.7,286.2 758.8,287.0 766.9,283.8 774.9,283.2 783.0,285.0 791.1,289.0 799.2,286.6 807.3,283.8 815.4,285.8 823.4,286.2 831.5,283.5 839.6,283.2 847.7,284.5 855.8,284.1 863.8,279.6 871.9,282.6 880.0,281.1" fill="none" stroke="#f97316" stroke-width="3" stroke-linecap="round" stroke-linejoin="round"/>
<circle cx="80.0" cy="60.0" r="3.5" fill="#f97316"/>
<circle cx="88.1" cy="83.7" r="3.5" fill="#f97316"/>
<circle cx="96.2" cy="108.5" r="3.5" fill="#f97316"/>
<circle cx="104.2" cy="129.6" r="3.5" fill="#f97316"/>
<circle cx="112.3" cy="152.8" r="3.5" fill="#f97316"/>
<circle cx="120.4" cy="172.0" r="3.5" fill="#f97316"/>
<circle cx="128.5" cy="192.0" r="3.5" fill="#f97316"/>
<circle cx="136.6" cy="210.1" r="3.5" fill="#f97316"/>
<circle cx="144.6" cy="226.8" r="3.5" fill="#f97316"/>
<circle cx="152.7" cy="240.8" r="3.5" fill="#f97316"/>
<circle cx="160.8" cy="251.8" r="3.5" fill="#f97316"/>
<circle cx="168.9" cy="262.1" r="3.5" fill="#f97316"/>
<circle cx="177.0" cy="269.4" r="3.5" fill="#f97316"/>
<circle cx="185.1" cy="274.0" r="3.5" fill="#f97316"/>
<circle cx="193.1" cy="277.0" r="3.5" fill="#f97316"/>
<circle cx="201.2" cy="279.5" r="3.5" fill="#f97316"/>
<circle cx="209.3" cy="280.7" r="3.5" fill="#f97316"/>
<circle cx="217.4" cy="282.6" r="3.5" fill="#f97316"/>
<circle cx="225.5" cy="282.1" r="3.5" fill="#f97316"/>
<circle cx="233.5" cy="283.0" r="3.5" fill="#f97316"/>
<circle cx="241.6" cy="283.6" r="3.5" fill="#f97316"/>
<circle cx="249.7" cy="285.0" r="3.5" fill="#f97316"/>
<circle cx="257.8" cy="285.9" r="3.5" fill="#f97316"/>
<circle cx="265.9" cy="287.5" r="3.5" fill="#f97316"/>
<circle cx="273.9" cy="288.4" r="3.5" fill="#f97316"/>
<circle cx="282.0" cy="288.3" r="3.5" fill="#f97316"/>
<circle cx="290.1" cy="288.7" r="3.5" fill="#f97316"/>
<circle cx="298.2" cy="292.6" r="3.5" fill="#f97316"/>
<circle cx="306.3" cy="291.4" r="3.5" fill="#f97316"/>
<circle cx="314.3" cy="289.6" r="3.5" fill="#f97316"/>
<circle cx="322.4" cy="292.9" r="3.5" fill="#f97316"/>
<circle cx="330.5" cy="292.1" r="3.5" fill="#f97316"/>
<circle cx="338.6" cy="291.8" r="3.5" fill="#f97316"/>
<circle cx="346.7" cy="291.3" r="3.5" fill="#f97316"/>
<circle cx="354.7" cy="291.0" r="3.5" fill="#f97316"/>
<circle cx="362.8" cy="293.1" r="3.5" fill="#f97316"/>
<circle cx="370.9" cy="294.0" r="3.5" fill="#f97316"/>
<circle cx="379.0" cy="294.4" r="3.5" fill="#f97316"/>
<circle cx="387.1" cy="293.6" r="3.5" fill="#f97316"/>
<circle cx="395.2" cy="292.9" r="3.5" fill="#f97316"/>
<circle cx="403.2" cy="294.8" r="3.5" fill="#f97316"/>
<circle cx="411.3" cy="293.0" r="3.5" fill="#f97316"/>
<circle cx="419.4" cy="295.1" r="3.5" fill="#f97316"/>
<circle cx="427.5" cy="296.3" r="3.5" fill="#f97316"/>
<circle cx="435.6" cy="294.2" r="3.5" fill="#f97316"/>
<circle cx="443.6" cy="293.0" r="3.5" fill="#f97316"/>
<circle cx="451.7" cy="296.7" r="3.5" fill="#f97316"/>
<circle cx="459.8" cy="295.3" r="3.5" fill="#f97316"/>
<circle cx="467.9" cy="297.9" r="3.5" fill="#f97316"/>
<circle cx="476.0" cy="295.5" r="3.5" fill="#f97316"/>
<circle cx="484.0" cy="293.2" r="3.5" fill="#f97316"/>
<circle cx="492.1" cy="293.8" r="3.5" fill="#f97316"/>
<circle cx="500.2" cy="295.2" r="3.5" fill="#f97316"/>
<circle cx="508.3" cy="295.1" r="3.5" fill="#f97316"/>
<circle cx="516.4" cy="295.7" r="3.5" fill="#f97316"/>
<circle cx="524.4" cy="296.7" r="3.5" fill="#f97316"/>
<circle cx="532.5" cy="296.9" r="3.5" fill="#f97316"/>
<circle cx="540.6" cy="295.0" r="3.5" fill="#f97316"/>
<circle cx="548.7" cy="295.3" r="3.5" fill="#f97316"/>
<circle cx="556.8" cy="295.7" r="3.5" fill="#f97316"/>
<circle cx="564.8" cy="293.1" r="3.5" fill="#f97316"/>
<circle cx="572.9" cy="293.9" r="3.5" fill="#f97316"/>
<circle cx="581.0" cy="295.2" r="3.5" fill="#f97316"/>
<circle cx="589.1" cy="293.2" r="3.5" fill="#f97316"/>
<circle cx="597.2" cy="292.6" r="3.5" fill="#f97316"/>
<circle cx="605.3" cy="294.9" r="3.5" fill="#f97316"/>
<circle cx="613.3" cy="295.6" r="3.5" fill="#f97316"/>
<circle cx="621.4" cy="293.2" r="3.5" fill="#f97316"/>
<circle cx="629.5" cy="290.8" r="3.5" fill="#f97316"/>
<circle cx="637.6" cy="291.3" r="3.5" fill="#f97316"/>
<circle cx="645.7" cy="291.4" r="3.5" fill="#f97316"/>
<circle cx="653.7" cy="288.7" r="3.5" fill="#f97316"/>
<circle cx="661.8" cy="290.8" r="3.5" fill="#f97316"/>
<circle cx="669.9" cy="290.9" r="3.5" fill="#f97316"/>
<circle cx="678.0" cy="290.9" r="3.5" fill="#f97316"/>
<circle cx="686.1" cy="290.6" r="3.5" fill="#f97316"/>
<circle cx="694.1" cy="286.5" r="3.5" fill="#f97316"/>
<circle cx="702.2" cy="291.6" r="3.5" fill="#f97316"/>
<circle cx="710.3" cy="291.8" r="3.5" fill="#f97316"/>
<circle cx="718.4" cy="288.0" r="3.5" fill="#f97316"/>
<circle cx="726.5" cy="289.5" r="3.5" fill="#f97316"/>
<circle cx="734.5" cy="286.2" r="3.5" fill="#f97316"/>
<circle cx="742.6" cy="285.5" r="3.5" fill="#f97316"/>
<circle cx="750.7" cy="286.2" r="3.5" fill="#f97316"/>
<circle cx="758.8" cy="287.0" r="3.5" fill="#f97316"/>
<circle cx="766.9" cy="283.8" r="3.5" fill="#f97316"/>
<circle cx="774.9" cy="283.2" r="3.5" fill="#f97316"/>
<circle cx="783.0" cy="285.0" r="3.5" fill="#f97316"/>
<circle cx="791.1" cy="289.0" r="3.5" fill="#f97316"/>
<circle cx="799.2" cy="286.6" r="3.5" fill="#f97316"/>
<circle cx="807.3" cy="283.8" r="3.5" fill="#f97316"/>
<circle cx="815.4" cy="285.8" r="3.5" fill="#f97316"/>
<circle cx="823.4" cy="286.2" r="3.5" fill="#f97316"/>
<circle cx="831.5" cy="283.5" r="3.5" fill="#f97316"/>
<circle cx="839.6" cy="283.2" r="3.5" fill="#f97316"/>
<circle cx="847.7" cy="284.5" r="3.5" fill="#f97316"/>
<circle cx="855.8" cy="284.1" r="3.5" fill="#f97316"/>
<circle cx="863.8" cy="279.6" r="3.5" fill="#f97316"/>
<circle cx="871.9" cy="282.6" r="3.5" fill="#f97316"/>
<circle cx="880.0" cy="281.1" r="3.5" fill="#f97316"/>
<circle cx="88" cy="373" r="5" fill="#f97316"/>
<text x="102" y="378" fill="#cbd5e1" font-size="14">valid loss</text>
</svg>