<svg xmlns="http://www.w3.org/2000/svg" width="900" height="380" viewBox="0 0 900 380">
<rect width="100%" height="100%" rx="24" fill="#0f172a"/>
<text x="80" y="34" fill="#e2e8f0" font-size="24" font-weight="700">共享审计成功率</text>
<line x1="80" y1="300" x2="840" y2="300" stroke="#475569" stroke-width="2"/>
<line x1="80" y1="60" x2="80" y2="300" stroke="#475569" stroke-width="2"/>
<rect x="119.5" y="110.5" width="73.0" height="189.5" rx="10" fill="#22c55e"/>
<text x="156.0" y="102.5" text-anchor="middle" fill="#f8fafc" font-size="14">0.750</text>
<text x="156.0" y="326.0" text-anchor="middle" fill="#cbd5e1" font-size="13">@100</text>
<rect x="271.5" y="97.9" width="73.0" height="202.1" rx="10" fill="#22c55e"/>
<text x="308.0" y="89.9" text-anchor="middle" fill="#f8fafc" font-size="14">0.800</text>
<text x="308.0" y="326.0" text-anchor="middle" fill="#cbd5e1" font-size="13">@200</text>
<rect x="423.5" y="72.6" width="73.0" height="227.4" rx="10" fill="#22c55e"/>
<text x="460.0" y="64.6" text-anchor="middle" fill="#f8fafc" font-size="14">0.900</text>
<text x="460.0" y="326.0" text-anchor="middle" fill="#cbd5e1" font-size="13">@300</text>
<rect x="575.5" y="97.9" width="73.0" height="202.1" rx="10" fill="#22c55e"/>
<text x="612.0" y="89.9" text-anchor="middle" fill="#f8fafc" font-size="14">0.800</text>
<text x="612.0" y="326.0" text-anchor="middle" fill="#cbd5e1" font-size="13">@400</text>
<rect x="727.5" y="60.0" width="73.0" height="240.0" rx="10" fill="#22c55e"/>
<text x="764.0" y="52.0" text-anchor="middle" fill="#f8fafc" font-size="14">0.950</text>
<text x="764.0" y="326.0" text-anchor="middle" fill="#cbd5e1" font-size="13">@500</text>
</svg>