<svg xmlns="http://www.w3.org/2000/svg" width="980" height="420" viewBox="0 0 980 420">
<rect width="100%" height="100%" rx="26" fill="#0f172a"/>
<text x="74" y="38" fill="#f8fafc" font-size="26" font-weight="700">PDIT 最优组 train / valid loss 尾段</text>
<text x="74" y="60" fill="#94a3b8" font-size="14">围绕当前最优的 baseline@500 组，直接看尾段 train / valid total loss 的收敛关系，而不是再重复摆一张 success 柱状图。</text>
<line x1="74" y1="364.0" x2="948" y2="364.0" stroke="#334155" stroke-width="1"/>
<text x="64" y="368.0" text-anchor="end" fill="#94a3b8" font-size="12">0.000</text>
<line x1="74" y1="290.5" x2="948" y2="290.5" stroke="#334155" stroke-width="1"/>
<text x="64" y="294.5" text-anchor="end" fill="#94a3b8" font-size="12">0.358</text>
<line x1="74" y1="217.0" x2="948" y2="217.0" stroke="#334155" stroke-width="1"/>
<text x="64" y="221.0" text-anchor="end" fill="#94a3b8" font-size="12">0.717</text>
<line x1="74" y1="143.5" x2="948" y2="143.5" stroke="#334155" stroke-width="1"/>
<text x="64" y="147.5" text-anchor="end" fill="#94a3b8" font-size="12">1.075</text>
<line x1="74" y1="70.0" x2="948" y2="70.0" stroke="#334155" stroke-width="1"/>
<text x="64" y="74.0" text-anchor="end" fill="#94a3b8" font-size="12">1.433</text>
<line x1="74" y1="364" x2="948" y2="364" stroke="#475569" stroke-width="2"/>
<path d="M 74.0 361.1 L 292.5 361.2 L 511.0 360.9 L 729.5 360.8 L 948.0 361.0" fill="none" stroke="#b2573f" stroke-width="3.2" stroke-linecap="round" stroke-linejoin="round"/>
<circle cx="74.0" cy="361.1" r="4.4" fill="#b2573f"/>
<circle cx="292.5" cy="361.2" r="4.4" fill="#b2573f"/>
<circle cx="511.0" cy="360.9" r="4.4" fill="#b2573f"/>
<circle cx="729.5" cy="360.8" r="4.4" fill="#b2573f"/>
<circle cx="948.0" cy="361.0" r="4.4" fill="#b2573f"/>
<circle cx="82" cy="399" r="5" fill="#b2573f"/>
<text x="96" y="404" fill="#cbd5e1" font-size="14">train/loss_total</text>
<path d="M 74.0 70.3 L 292.5 70.0 L 511.0 82.1 L 729.5 96.0 L 948.0 72.3" fill="none" stroke="#3e7cb1" stroke-width="3.2" stroke-linecap="round" stroke-linejoin="round"/>
<circle cx="74.0" cy="70.3" r="4.4" fill="#3e7cb1"/>
<circle cx="292.5" cy="70.0" r="4.4" fill="#3e7cb1"/>
<circle cx="511.0" cy="82.1" r="4.4" fill="#3e7cb1"/>
<circle cx="729.5" cy="96.0" r="4.4" fill="#3e7cb1"/>
<circle cx="948.0" cy="72.3" r="4.4" fill="#3e7cb1"/>
<circle cx="252" cy="399" r="5" fill="#3e7cb1"/>
<text x="266" y="404" fill="#cbd5e1" font-size="14">valid/loss_total</text>
</svg>