<svg xmlns="http://www.w3.org/2000/svg" width="980" height="420" viewBox="0 0 980 420">
<rect width="100%" height="100%" rx="26" fill="#0f172a"/>
<text x="74" y="38" fill="#f8fafc" font-size="26" font-weight="700">PDIT 最优组 valid MSE 尾段</text>
<text x="74" y="60" fill="#94a3b8" font-size="14">把最优组尾段的 xyz / rot6d / grip 三条误差单独拆开，直接解释当前行为锚点背后的误差结构。</text>
<line x1="74" y1="364.0" x2="948" y2="364.0" stroke="#334155" stroke-width="1"/>
<text x="64" y="368.0" text-anchor="end" fill="#94a3b8" font-size="12">0.000</text>
<line x1="74" y1="290.5" x2="948" y2="290.5" stroke="#334155" stroke-width="1"/>
<text x="64" y="294.5" text-anchor="end" fill="#94a3b8" font-size="12">0.017</text>
<line x1="74" y1="217.0" x2="948" y2="217.0" stroke="#334155" stroke-width="1"/>
<text x="64" y="221.0" text-anchor="end" fill="#94a3b8" font-size="12">0.034</text>
<line x1="74" y1="143.5" x2="948" y2="143.5" stroke="#334155" stroke-width="1"/>
<text x="64" y="147.5" text-anchor="end" fill="#94a3b8" font-size="12">0.051</text>
<line x1="74" y1="70.0" x2="948" y2="70.0" stroke="#334155" stroke-width="1"/>
<text x="64" y="74.0" text-anchor="end" fill="#94a3b8" font-size="12">0.068</text>
<line x1="74" y1="364" x2="948" y2="364" stroke="#475569" stroke-width="2"/>
<path d="M 74.0 346.1 L 292.5 346.2 L 511.0 346.0 L 729.5 346.0 L 948.0 346.0" fill="none" stroke="#2b766f" stroke-width="3.2" stroke-linecap="round" stroke-linejoin="round"/>
<circle cx="74.0" cy="346.1" r="4.4" fill="#2b766f"/>
<circle cx="292.5" cy="346.2" r="4.4" fill="#2b766f"/>
<circle cx="511.0" cy="346.0" r="4.4" fill="#2b766f"/>
<circle cx="729.5" cy="346.0" r="4.4" fill="#2b766f"/>
<circle cx="948.0" cy="346.0" r="4.4" fill="#2b766f"/>
<circle cx="82" cy="399" r="5" fill="#2b766f"/>
<text x="96" y="404" fill="#cbd5e1" font-size="14">mse_xyz</text>
<path d="M 74.0 70.5 L 292.5 71.2 L 511.0 70.0 L 729.5 70.4 L 948.0 70.3" fill="none" stroke="#a27a32" stroke-width="3.2" stroke-linecap="round" stroke-linejoin="round"/>
<circle cx="74.0" cy="70.5" r="4.4" fill="#a27a32"/>
<circle cx="292.5" cy="71.2" r="4.4" fill="#a27a32"/>
<circle cx="511.0" cy="70.0" r="4.4" fill="#a27a32"/>
<circle cx="729.5" cy="70.4" r="4.4" fill="#a27a32"/>
<circle cx="948.0" cy="70.3" r="4.4" fill="#a27a32"/>
<circle cx="252" cy="399" r="5" fill="#a27a32"/>
<text x="266" y="404" fill="#cbd5e1" font-size="14">mse_rot6d</text>
<path d="M 74.0 91.0 L 292.5 92.4 L 511.0 91.1 L 729.5 90.5 L 948.0 90.3" fill="none" stroke="#d4684c" stroke-width="3.2" stroke-linecap="round" stroke-linejoin="round"/>
<circle cx="74.0" cy="91.0" r="4.4" fill="#d4684c"/>
<circle cx="292.5" cy="92.4" r="4.4" fill="#d4684c"/>
<circle cx="511.0" cy="91.1" r="4.4" fill="#d4684c"/>
<circle cx="729.5" cy="90.5" r="4.4" fill="#d4684c"/>
<circle cx="948.0" cy="90.3" r="4.4" fill="#d4684c"/>
<circle cx="422" cy="399" r="5" fill="#d4684c"/>
<text x="436" y="404" fill="#cbd5e1" font-size="14">mse_grip</text>
</svg>